<?xml version="1.0" encoding="utf-8"?>
<!-- Generator: Adobe Illustrator 16.0.0, SVG Export Plug-In . SVG Version: 6.00 Build 0)  -->
<!DOCTYPE svg PUBLIC "-//W3C//DTD SVG 1.1//EN" "http://www.w3.org/Graphics/SVG/1.1/DTD/svg11.dtd">
<svg version="1.1" id="Layer_1" xmlns="http://www.w3.org/2000/svg" xmlns:xlink="http://www.w3.org/1999/xlink" x="0px" y="0px"
	 width="264.545px" height="365px" viewBox="0 0 264.545 365" enable-background="new 0 0 264.545 365" xml:space="preserve">
<g id="XMLID_1_">
	<path id="XMLID_21_" fill="#FFFFFF" d="M116.401,195.682h29.629V28.949l-29.629,36.574V195.682z M194.7,46.179l-29.629,36.593
		v233.539H194.7V46.179z M213.761,244.353h50.784v-29.629h-50.784V244.353z M169.469,0l-4.397,5.416v47.085l27.421-33.856L169.469,0
		z M97.341,136.142V89.056L11.002,195.682h38.121L97.341,136.142z M116.401,365h29.629V263.413h-29.629V365z M0,244.353h146.03
		v-29.629H0V244.353z M165.071,365h74.072v-29.629h-74.072V365z M67.731,335.371h29.628V365H67.731V335.371z"/>
</g>
</svg>
