<?xml version="1.0" encoding="utf-8"?>
<!-- Generator: Adobe Illustrator 16.0.0, SVG Export Plug-In . SVG Version: 6.00 Build 0)  -->
<!DOCTYPE svg PUBLIC "-//W3C//DTD SVG 1.1//EN" "http://www.w3.org/Graphics/SVG/1.1/DTD/svg11.dtd">
<svg version="1.1" id="Layer_1" xmlns="http://www.w3.org/2000/svg" xmlns:xlink="http://www.w3.org/1999/xlink" x="0px" y="0px"
	 width="186.338px" height="187.086px" viewBox="0 0 186.338 187.086" enable-background="new 0 0 186.338 187.086"
	 xml:space="preserve">
<path fill-rule="evenodd" clip-rule="evenodd" fill="#FFFFFF" d="M93.169,0C41.714,0,0,41.881,0,93.543s41.714,93.543,93.169,93.543
	s93.169-41.881,93.169-93.543S144.624,0,93.169,0L93.169,0L93.169,0L93.169,0z M47.409,120.644v-7.743l0,0
	c-3.921,4.459-8.388,7.431-14.968,7.396c-15.568-0.086-28.192-12.674-28.192-28.307c0-15.631,12.624-28.303,28.192-28.303
	c15.57,0,29.114,12.572,29.114,28.205l0,0l0.016,28.651L47.409,120.644L47.409,120.644L47.409,120.644z M93.871,121.088
	c-15.57,0-29.113-12.572-29.113-28.205l0,0l-0.016-47.625h14.141l0.02,26.617l0,0c3.922-4.459,8.389-7.432,14.969-7.396
	c15.567,0.087,28.19,12.674,28.19,28.306S109.438,121.088,93.871,121.088L93.871,121.088L93.871,121.088L93.871,121.088z
	 M154.489,120.424c-15.569,0-28.192-12.672-28.192-28.304s12.623-28.304,28.192-28.304c13.59,0,24.975,9.959,27.641,22.809l0,0
	l-14.176-0.048l0,0c-2.174-5.155-7.278-8.638-13.206-8.638c-7.901,0-14.308,6.43-14.308,14.363c0,7.936,6.406,14.368,14.308,14.368
	c5.928,0,11.096-3.445,13.269-8.603l0,0l14.175-0.066l0,0C179.563,110.902,168.113,120.424,154.489,120.424L154.489,120.424
	L154.489,120.424L154.489,120.424z"/>
<path fill-rule="evenodd" clip-rule="evenodd" fill="#FFFFFF" d="M93.508,77.663c-7.901,0-14.31,6.432-14.31,14.365
	s6.408,14.367,14.31,14.367c7.902,0,14.311-6.434,14.311-14.367S101.41,77.663,93.508,77.663L93.508,77.663L93.508,77.663
	L93.508,77.663z"/>
<path fill-rule="evenodd" clip-rule="evenodd" fill="#FFFFFF" d="M32.617,77.663c-7.902,0-14.311,6.432-14.311,14.365
	s6.408,14.367,14.311,14.367s14.311-6.434,14.311-14.367S40.52,77.663,32.617,77.663L32.617,77.663L32.617,77.663L32.617,77.663z"/>
</svg>
