<?xml version="1.0" encoding="utf-8"?>
<!-- Generator: Adobe Illustrator 16.0.0, SVG Export Plug-In . SVG Version: 6.00 Build 0)  -->
<!DOCTYPE svg PUBLIC "-//W3C//DTD SVG 1.1//EN" "http://www.w3.org/Graphics/SVG/1.1/DTD/svg11.dtd">
<svg version="1.1" id="Layer_1" xmlns="http://www.w3.org/2000/svg" xmlns:xlink="http://www.w3.org/1999/xlink" x="0px" y="0px"
	 width="2160.698px" height="1549.459px" viewBox="175 432.23 2160.698 1549.459"
	 enable-background="new 175 432.23 2160.698 1549.459" xml:space="preserve">
<path fill="#FFFFFF" d="M1440.435,1372.914l-13.955,34.072c230.563,5.214,227.956,275.983,92.564,430.583
	c-3.501,3.502-6.108,7.872-9.597,11.374c-89.09-75.134-143.252-185.169-153.718-239.331c0,0-34.072-157.206-65.511-320.548
	c71.606-79.479,158.957-182.549,198.269-254.168c62.009-112.682,20.946-213.119-38.429-251.549
	c-32.321-21.841-67.287-26.212-108.324-14.851V432.23h715.335l64.642,360.728h-335.412v219.229h374.71l64.642,360.728H1440.435z"/>
<path fill="#FFFFFF" d="M1786.313,1620.961h484.771l64.615,359.859h-626.245c135.392-23.579,214.001-110.931,255.038-154.6
	l-8.716-16.588c-170.332,149.359-312.688,131.876-415.771,62.008c81.242-84.731,114.419-196.518,117.025-273.377
	c6.135-138.011,64.642-179.93,129.27-188.671v211.368H1786.313z"/>
<path fill="#FFFFFF" d="M1334.744,1981.689c44.563-7.847,83.85-22.697,117.921-42.787c37.561,21.841,77.741,35.822,119.672,42.787
	H1334.744z"/>
<path fill="#FFFFFF" d="M1258.754,1109.148c105.704-56.769,303.96-225.35,165.092-310.95
	c-48.026-23.579-194.767-7.859-177.309,214.001C1249.156,1038.398,1254.397,1075.945,1258.754,1109.148z"/>
<path fill="#FFFFFF" d="M1415.092,1910.965c-80.348-62.903-135.379-129.27-165.936-274.258l-54.161-247.191
	c-61.14,68.144-149.36,245.44-83.85,388.691C1160.936,1888.242,1294.564,1955.49,1415.092,1910.965L1415.092,1910.965z"/>
<path fill="#FFFFFF" d="M1205.668,832.27l-32.32-400.039H533.99L175,1980.833h422.736l52.411-236.698l228.838,0.856l20.091,235.842
	h232.353c-209.617-40.18-256.788-227.074-268.137-311.806c-12.243-86.482,6.979-296.982,264.636-489.998
	C1099.109,1021.784,1139.289,896.029,1205.668,832.27z M690.334,1413.095l89.958-403.528l36.691,403.528H690.334z"/>
</svg>
