<?xml version="1.0" encoding="utf-8"?>
<!-- Generator: Adobe Illustrator 16.0.0, SVG Export Plug-In . SVG Version: 6.00 Build 0)  -->
<!DOCTYPE svg PUBLIC "-//W3C//DTD SVG 1.1//EN" "http://www.w3.org/Graphics/SVG/1.1/DTD/svg11.dtd">
<svg version="1.1" id="Layer_1" xmlns="http://www.w3.org/2000/svg" xmlns:xlink="http://www.w3.org/1999/xlink" x="0px" y="0px"
	 width="440.115px" height="132.627px" viewBox="0 0 440.115 132.627" enable-background="new 0 0 440.115 132.627"
	 xml:space="preserve">
<path fill-rule="evenodd" clip-rule="evenodd" fill="#FFFFFF" d="M273.04,103.722c-25.569,18.873-62.64,28.905-94.567,28.905
	c-44.743,0-85.029-16.536-115.524-44.068c-2.385-2.155-0.253-5.119,2.626-3.444c32.891,19.149,73.575,30.676,115.583,30.676
	c28.339,0,59.496-5.878,88.16-18.042C273.641,95.918,277.266,100.603,273.04,103.722"/>
<path fill-rule="evenodd" clip-rule="evenodd" fill="#FFFFFF" d="M283.681,91.577c-3.276-4.191-21.619-1.987-29.868-1
	c-2.494,0.301-2.879-1.878-0.627-3.456c14.633-10.286,38.612-7.312,41.407-3.878c2.806,3.479-0.735,27.52-14.453,38.997
	c-2.108,1.771-4.119,0.818-3.18-1.506C280.043,113.026,286.957,95.767,283.681,91.577"/>
<path fill-rule="evenodd" clip-rule="evenodd" fill="#FFFFFF" d="M254.399,14.488V4.504c0.012-1.53,1.156-2.541,2.529-2.541h44.779
	c1.433,0,2.576,1.047,2.576,2.529v8.563c-0.012,1.433-1.216,3.312-3.371,6.287l-23.185,33.12c8.599-0.205,17.716,1.084,25.532,5.48
	c1.759,0.987,2.241,2.457,2.373,3.902v10.659c0,1.469-1.603,3.167-3.288,2.275c-13.79-7.214-32.072-8.009-47.309,0.096
	c-1.564,0.819-3.19-0.854-3.19-2.323V62.422c0-1.626,0.023-4.396,1.662-6.865l26.869-38.552h-23.39
	C255.555,17.005,254.411,15.981,254.399,14.488"/>
<path fill-rule="evenodd" clip-rule="evenodd" fill="#FFFFFF" d="M91.075,76.883H77.454c-1.301-0.084-2.337-1.061-2.433-2.301V4.669
	c0-1.397,1.18-2.517,2.637-2.517H90.34c1.325,0.06,2.397,1.071,2.481,2.348v9.129h0.253c3.3-8.828,9.539-12.947,17.921-12.947
	c8.527,0,13.863,4.119,17.681,12.947c3.3-8.828,10.803-12.947,18.812-12.947c5.721,0,11.959,2.349,15.765,7.648
	c4.324,5.877,3.445,14.416,3.445,21.92l-0.012,44.116c0,1.397-1.181,2.518-2.626,2.518h-13.609
	c-1.373-0.084-2.445-1.168-2.445-2.505V37.307c0-2.938,0.253-10.297-0.386-13.091c-1.023-4.709-4.07-6.034-8.009-6.034
	c-3.312,0-6.744,2.204-8.141,5.745c-1.397,3.528-1.265,9.406-1.265,13.38v37.059c0,1.397-1.18,2.518-2.625,2.518h-13.61
	c-1.373-0.084-2.445-1.168-2.445-2.505l-0.012-37.071c0-7.792,1.265-19.27-8.394-19.27c-9.792,0-9.406,11.177-9.406,19.27
	l-0.012,37.059C93.701,75.763,92.532,76.883,91.075,76.883"/>
<path fill-rule="evenodd" clip-rule="evenodd" fill="#FFFFFF" d="M342.825,0.675c20.222,0,31.158,17.367,31.158,39.431
	c0,21.33-12.08,38.251-31.158,38.251c-19.836,0-30.639-17.367-30.639-38.985C312.186,17.597,323.122,0.675,342.825,0.675
	 M342.958,14.947c-10.045,0-10.683,13.682-10.683,22.209c0,8.539-0.12,26.785,10.55,26.785c10.563,0,11.069-14.718,11.069-23.69
	c0-5.889-0.253-12.947-2.036-18.535C350.329,16.862,347.282,14.947,342.958,14.947"/>
<path fill-rule="evenodd" clip-rule="evenodd" fill="#FFFFFF" d="M400.202,76.883h-13.573c-1.36-0.084-2.444-1.168-2.444-2.505
	l-0.024-69.95c0.12-1.277,1.252-2.276,2.625-2.276h12.634c1.181,0.06,2.168,0.867,2.421,1.951v10.695h0.254
	c3.817-9.563,9.152-14.116,18.559-14.116c6.106,0,12.08,2.204,15.897,8.238c3.565,5.588,3.565,15.007,3.565,21.775v43.984
	c-0.157,1.24-1.265,2.204-2.614,2.204h-13.656c-1.266-0.084-2.276-1.013-2.422-2.204V36.717c0-7.648,0.892-18.824-8.526-18.824
	c-3.3,0-6.359,2.204-7.877,5.588c-1.902,4.264-2.167,8.527-2.167,13.236v37.649C402.827,75.763,401.647,76.883,400.202,76.883"/>
<path fill-rule="evenodd" clip-rule="evenodd" fill="#FFFFFF" d="M218.709,43.49c0,5.312,0.121,9.732-2.553,14.453
	c-2.168,3.83-5.6,6.19-9.43,6.19c-5.227,0-8.286-3.974-8.286-9.876c0-11.598,10.405-13.705,20.269-13.705V43.49z M232.44,76.708
	c-0.903,0.807-2.204,0.866-3.217,0.313c-4.527-3.758-5.335-5.492-7.804-9.069c-7.479,7.612-12.778,9.9-22.462,9.9
	c-11.465,0-20.39-7.082-20.39-21.233c0-11.056,5.986-18.571,14.525-22.269c7.395-3.24,17.716-3.83,25.617-4.709v-1.77
	c0-3.252,0.253-7.082-1.662-9.876c-1.65-2.517-4.841-3.541-7.648-3.541c-5.191,0-9.803,2.662-10.947,8.178
	c-0.229,1.228-1.133,2.444-2.361,2.505l-13.2-1.434c-1.12-0.252-2.361-1.144-2.035-2.842C183.892,4.842,198.355,0,211.314,0
	c6.624,0,15.296,1.771,20.511,6.781c6.636,6.191,5.998,14.453,5.998,23.449v21.221c0,6.383,2.648,9.178,5.142,12.622
	c0.867,1.241,1.061,2.709-0.048,3.613c-2.782,2.337-7.731,6.636-10.441,9.057L232.44,76.708z"/>
<path fill-rule="evenodd" clip-rule="evenodd" fill="#FFFFFF" d="M40.142,43.49c0,5.312,0.121,9.732-2.553,14.453
	c-2.168,3.83-5.6,6.19-9.43,6.19c-5.227,0-8.286-3.974-8.286-9.876c0-11.598,10.417-13.705,20.269-13.705V43.49z M53.872,76.708
	c-0.903,0.807-2.204,0.866-3.216,0.313c-4.528-3.758-5.335-5.492-7.816-9.069c-7.467,7.612-12.766,9.9-22.45,9.9
	C8.925,77.851,0,70.769,0,56.618c0-11.056,5.986-18.571,14.525-22.269c7.395-3.24,17.716-3.83,25.617-4.709v-1.77
	c0-3.252,0.253-7.082-1.662-9.876c-1.65-2.517-4.841-3.541-7.648-3.541c-5.191,0-9.815,2.662-10.947,8.178
	c-0.229,1.228-1.133,2.444-2.361,2.505l-13.2-1.434c-1.12-0.252-2.361-1.144-2.035-2.842C5.324,4.842,19.788,0,32.747,0
	c6.624,0,15.296,1.771,20.523,6.781c6.624,6.191,5.986,14.453,5.986,23.449v21.221c0,6.383,2.649,9.178,5.142,12.622
	c0.867,1.241,1.06,2.709-0.048,3.613c-2.782,2.337-7.732,6.636-10.442,9.057L53.872,76.708z"/>
</svg>
