<?xml version="1.0" encoding="utf-8"?>
<!-- Generator: Adobe Illustrator 16.0.0, SVG Export Plug-In . SVG Version: 6.00 Build 0)  -->
<!DOCTYPE svg PUBLIC "-//W3C//DTD SVG 1.1//EN" "http://www.w3.org/Graphics/SVG/1.1/DTD/svg11.dtd">
<svg version="1.1" id="Calque_1" xmlns="http://www.w3.org/2000/svg" xmlns:xlink="http://www.w3.org/1999/xlink" x="0px" y="0px"
	 width="391.333px" height="128.051px" viewBox="0 0 391.333 128.051" enable-background="new 0 0 391.333 128.051"
	 xml:space="preserve">
<g>
	<path fill="#FFFFFF" d="M14.705,114.656h109.878V11.112H14.705V114.656z M43.583,25.694h26.104
		c23.52,2.167,22.063,19.917,22.063,19.917c0.083,10.833-9.5,14.917-9.5,14.917c16.833,4.25,16.25,18.583,16.25,18.583
		c0,21.083-25,21-25,21H43.583V25.694z"/>
	<path fill="#FFFFFF" d="M84.833,78.027c0,0,0.417-9.833-14-9.75h-14V88.61h14C70.833,88.61,84.833,89.277,84.833,78.027z"/>
	<path fill="#FFFFFF" d="M78.167,46.111c0,0,0.416-8.25-10.667-8.833H56.833v19.25h9.083C65.917,56.528,78.167,56.361,78.167,46.111
		z"/>
	<path fill="#FFFFFF" d="M204.833,46.111c0,0,0.416-8.25-10.667-8.833H183.5v19.25h9.083
		C192.583,56.528,204.833,56.361,204.833,46.111z"/>
	<path fill="#FFFFFF" d="M141.414,114.656h109.878V11.112H141.414V114.656z M170.25,25.694h26.104
		c23.52,2.167,22.063,19.917,22.063,19.917c0.083,10.833-9.5,14.917-9.5,14.917c16.833,4.25,16.25,18.583,16.25,18.583
		c0,21.083-25,21-25,21H170.25V25.694z"/>
	<path fill="#FFFFFF" d="M211.5,78.027c0,0,0.417-9.833-14-9.75h-14V88.61h14C197.5,88.61,211.5,89.277,211.5,78.027z"/>
	<path fill="#FFFFFF" d="M268.122,11.112v103.544H378V11.112H268.122z M356.25,94.195c0,0-22.583,13.417-48.75,3.083
		c0,0-22-8.04-22.833-34.395c0,0-0.917-27.104,28.417-36.105c0,0,7.834-3,21.917-1.667c0,0,8.416,0.834,20.583,5.917v13.75
		c0,0-13.417-8.25-28.25-8.417c0,0-27.666-0.54-28.916,26.521c0,0-1,24.895,28.583,26.312c0,0,12.417,1.5,29.25-9.25V94.195z"/>
</g>
</svg>
