<?xml version="1.0" encoding="utf-8"?>
<!-- Generator: Adobe Illustrator 16.0.0, SVG Export Plug-In . SVG Version: 6.00 Build 0)  -->
<!DOCTYPE svg PUBLIC "-//W3C//DTD SVG 1.1//EN" "http://www.w3.org/Graphics/SVG/1.1/DTD/svg11.dtd">
<svg version="1.1" xmlns="http://www.w3.org/2000/svg" xmlns:xlink="http://www.w3.org/1999/xlink" x="0px" y="0px"
	 width="79.557px" height="80.674px" viewBox="0 0 79.557 80.674" enable-background="new 0 0 79.557 80.674" xml:space="preserve">
<path fill="#FFFFFF" d="M79.557,40.242c0,22.303-17.442,40.432-39.729,40.432C17.633,80.674,0,62.545,0,40.242
	C0,18.133,17.633,0,39.828,0C62.114,0,79.557,18.133,79.557,40.242 M2.805,40.242C8.428,52.07,21.608,63.608,39.828,63.608
	c18.12,0,31.393-11.538,37.015-23.367c-5.622-11.638-18.895-23.176-37.015-23.176C21.608,17.065,8.428,28.604,2.805,40.242z
	 M61.146,40.242c0,11.927-9.499,21.426-21.318,21.426C28,61.668,18.41,52.169,18.41,40.242c0-11.733,9.59-21.335,21.418-21.335
	C51.647,18.907,61.146,28.509,61.146,40.242z"/>
</svg>
