<?xml version="1.0" encoding="utf-8"?>
<!-- Generator: Adobe Illustrator 16.0.0, SVG Export Plug-In . SVG Version: 6.00 Build 0)  -->
<!DOCTYPE svg PUBLIC "-//W3C//DTD SVG 1.1//EN" "http://www.w3.org/Graphics/SVG/1.1/DTD/svg11.dtd">
<svg version="1.1" id="Layer_1" xmlns="http://www.w3.org/2000/svg" xmlns:xlink="http://www.w3.org/1999/xlink" x="0px" y="0px"
	 width="305.326px" height="82.016px" viewBox="0 0 305.326 82.016" enable-background="new 0 0 305.326 82.016"
	 xml:space="preserve">
<polygon fill="#FFFFFF" points="76.744,73.71 80.04,50.613 93.441,71.651 106.788,70.01 113.341,23.585 98.451,25.397 95.301,47.57 
	82.454,27.37 68.398,29.103 61.852,75.527 "/>
<polygon fill="#FFFFFF" points="149.78,64.729 151.552,52.001 128.005,54.893 128.759,49.843 150.708,47.151 152.267,35.95 
	130.312,38.641 130.979,33.928 154.539,31.028 156.359,18.294 118.034,23.007 111.485,69.433 "/>
<polygon fill="#FFFFFF" points="57.23,76.099 63.782,29.66 48.767,31.506 42.206,77.937 "/>
<path fill="#FFFFFF" d="M9.458,81.849h0.025l28.006-3.382l1.938-12.933l-19.04,2.351c-2.517,0.316-4.788-0.463-4.345-3.724
	l1.671-11.76c0.499-3.737,3.658-4.743,6.969-5.136l17.638-2.156l1.854-13.017l-31.014,3.809c-4.324,0.535-7.671,3.29-8.683,7.349
	L0.029,75.047C-0.396,79.191,3.845,82.849,9.458,81.849z"/>
<path fill="#FFFFFF" d="M169.186,62.348l3.229-23.02l8.001,15.251l0.262-0.023l12.664-17.791l-3.234,23.017l13.738-1.684
	l1.226-0.157l15.144-1.854l3.174-6.511l15.74-1.94l1.51,5.944l12.009-1.481l3.967-0.478l13.426-1.655l9.137-14.031l7.041,12.042
	l16.243-1.996l-13.836-21.633L305.326,0l-17.401,2.139l-7.785,12.024l-6.472-10.278l-16.243,1.992l13.174,20.026l-15.036,21.943
	L244.296,7.561l-14.886,1.84l-23.92,45.57l6.134-43.458l-16.504,2.02l-11.92,17.495l-7.346-15.128l-14.821,1.821l-6.537,46.439
	L169.186,62.348z M234.421,26.305l2.556,10.775l-8.215,1.008L234.421,26.305z"/>
</svg>
