<?xml version="1.0" encoding="utf-8"?>
<!-- Generator: Adobe Illustrator 16.0.0, SVG Export Plug-In . SVG Version: 6.00 Build 0)  -->
<!DOCTYPE svg PUBLIC "-//W3C//DTD SVG 1.1//EN" "http://www.w3.org/Graphics/SVG/1.1/DTD/svg11.dtd">
<svg version="1.1" id="Layer_1" xmlns="http://www.w3.org/2000/svg" xmlns:xlink="http://www.w3.org/1999/xlink" x="0px" y="0px"
	 width="370px" height="148.459px" viewBox="0 0 370 148.459" enable-background="new 0 0 370 148.459" xml:space="preserve">
<g>
	<path id="XMLID_4_" fill="#FFFFFF" d="M283.998,0h-39.556v87.942c0,6.46-2.298,11.988-6.893,16.438
		c-4.45,4.596-9.908,6.891-16.512,6.891c-6.46,0-11.917-2.296-16.367-6.891c-4.448-4.449-6.676-9.978-6.676-16.438V0H158.44v74.588
		c-0.216,9.403-3.159,17.373-9.046,24.119c-5.887,6.606-12.922,9.981-21.177,10.195h-57.65c-8.615,0-16.009-3.375-22.184-9.978
		c-6.031-6.82-9.045-15.078-9.045-24.552c0-9.692,3.015-17.946,9.045-24.839c6.174-6.605,13.569-9.979,22.184-9.979h57.647V0H70.568
		c-9.691,0-18.88,2.009-27.423,6.03c-8.615,3.59-16.152,8.83-22.613,15.651c-6.534,7.035-11.56,14.933-15.004,23.619
		C1.794,54.56,0,64.251,0,74.373c0,9.98,1.795,19.6,5.528,28.857c3.446,8.689,8.472,16.513,15.004,23.262
		c6.46,7.036,13.999,12.348,22.614,16.009c8.543,3.949,17.732,5.959,27.423,5.959h56.642c8.686-0.358,17.157-2.299,25.269-5.959
		c7.897-3.518,15.004-8.329,21.178-14.573c5.744,6.39,12.42,11.27,20.029,14.787c7.969,3.879,16.367,5.745,25.271,5.745
		c8.901,0,17.301-1.866,25.198-5.745c7.681-3.518,14.358-8.543,20.1-15.002c5.67,6.459,12.35,11.484,19.959,15.002
		c8.111,3.879,16.656,5.745,25.485,5.745c8.113,0,15.937-1.724,23.331-5.024c7.322-3.015,13.785-7.253,19.313-12.851
		c5.597-5.528,9.905-11.989,12.92-19.313c3.157-7.464,4.736-15.22,4.736-23.329V0h-39.341v87.942c0,6.46-2.297,11.988-6.892,16.438
		c-4.448,4.596-9.979,6.891-16.439,6.891c-6.316,0-11.844-2.296-16.439-6.891c-4.596-4.449-6.891-9.978-6.891-16.438V0L283.998,0z"
		/>
	<path id="XMLID_3_" fill="#FFFFFF" d="M123.189,66.045v-3.877h-15.721v24.122h16.224v-3.878h-11.2v-6.387h9.762v-4.091h-9.762
		v-5.887L123.189,66.045L123.189,66.045z"/>
	<path id="XMLID_2_" fill="#FFFFFF" d="M61.522,62.169v3.877h7.108v20.246h5.024V66.045h7.108v-3.877h-19.24V62.169z"/>
	<path id="XMLID_1_" fill="#FFFFFF" d="M88.874,71.933v-9.764h-5.025V86.29h5.025V76.026H99.14V86.29h5.025V62.169H99.14v9.764
		H88.874z"/>
</g>
</svg>
