<?xml version="1.0" encoding="utf-8"?>
<!-- Generator: Adobe Illustrator 16.0.0, SVG Export Plug-In . SVG Version: 6.00 Build 0)  -->
<!DOCTYPE svg PUBLIC "-//W3C//DTD SVG 1.1//EN" "http://www.w3.org/Graphics/SVG/1.1/DTD/svg11.dtd">
<svg version="1.1" id="Layer_1" xmlns:serif="http://www.serif.com/"
	 xmlns="http://www.w3.org/2000/svg" xmlns:xlink="http://www.w3.org/1999/xlink" x="0px" y="0px" width="543.203px"
	 height="294.68px" viewBox="34.398 248.66 543.203 294.68" enable-background="new 34.398 248.66 543.203 294.68"
	 xml:space="preserve">
<g transform="matrix(0.955463,0,0,0.580103,-356.942,25.8683)">
	<g id="Disney-Plus" serif:id="Disney Plus">
		<g>
			<path fill="#FFFFFF" d="M811.389,712.915c-7.868,2.97-28.577,4.68-28.577,4.68l-2.624,13.499c0,0,10.328-1.439,17.869-0.18
				c0,0,2.458-0.449,2.732,4.591c0.109,4.68-0.219,9.72-0.219,9.72s-0.164,3.059-2.787,3.779c-2.841,0.81-22.294,1.98-22.294,1.98
				l-3.169,17.55c0,0-1.148,4.05,1.475,2.88c2.459-1.079,22.842-7.38,25.518-6.479c2.841,1.17,6.011,7.38,5.082,13.139
				c-1.093,7.02-21.42,28.44-33.824,26.911c0,0-6.503,0.719-12.022-13.771c-5.136-13.77,1.968-39.96,1.968-39.96
				s-3.224-12.24-0.874-16.291c0,0,1.421-2.071,5.464-2.609l4.972-17.011c0,0-5.683,0.63-9.071-6.21
				c-3.169-6.569-3.387-9.54-0.983-11.34c2.568-2.071,26.229-9.18,42.513-8.279c0,0,5.683-0.901,10.546,15.299
				C813.028,704.815,815.433,711.385,811.389,712.915z M750.134,778.254c-2.076,8.101-7.595,16.74-14.426,11.341
				c-6.775-5.4-17.54-41.67-17.54-41.67s-4.099-13.501-4.863-13.23c0,0-0.875-2.611-1.421,12.149
				c-0.547,14.76,0.109,43.469-3.442,47.969c-3.388,4.5-7.487,2.7-9.618-2.609c-1.912-5.22-2.732-17.641-1.694-39.419
				c1.257-21.78,4.316-45.001,8.251-52.291c3.934-7.2,7.104-1.98,8.305-0.089c0,0,5.245,7.83,13.934,30.869l1.53,4.23
				c0,0,7.868,21.78,8.688,21.689c0,0,0.656,0.99,1.202,0.271c0.82-0.36,0.493-7.38,0.493-7.38s-1.639-23.671-8.798-63.81
				c0,0-1.093-5.04-0.328-9.72c0.71-4.771,3.607-2.52,3.607-2.52s11.147,9.18,16.503,39.061
				C755.817,743.246,752.211,770.155,750.134,778.254z M695.382,701.485c-0.929,3.06-1.475,7.469-6.174,8.639
				c0,0-44.971,5.04-47.102,10.26c0,0-1.585,3.06,0.874,3.959c2.459,0.811,12.623,3.06,17.54,3.51
				c5.246,0.091,22.951,0.36,29.289,13.41c0,0,3.771,6.21,3.606,20.25c-0.164,14.4-1.694,19.44-5.082,24.661
				c-3.551,4.86-34.042,27.361-53.714-7.2c0,0-9.07-16.649,3.115-29.25c0,0,8.797-8.73,31.146,1.53c0,0,6.776,4.049,6.448,8.099
				c-0.383,4.32-5.573,8.91-13.114,8.641c-7.322-0.36-12.677-6.121-11.639-5.22c0.984,0.63-7.868-7.02-10.6-1.8
				c-2.732,4.769-2.077,7.739,0.601,10.71c6.831,6.389,33.223,4.14,41.091-10.26c0,0,3.115-5.85-1.638-10.621
				c-4.755-4.5-18.361-7.2-23.661-7.649c-5.082-0.45-23.988,0.091-26.72-8.19c0,0-2.732-5.581,0.274-21.42
				c3.168-16.56,25.19-22.95,34.698-24.39c0,0,26.173-1.53,30.982,7.289C695.547,696.445,696.202,698.515,695.382,701.485z
				 M621.069,798.595c-3.169,3.87-9.891,2.16-11.803-2.16c-1.912-3.87-2.569-19.26-2.186-43.38c0.383-24.39,0.71-54.631,3.88-59.4
				c3.388-4.86,5.464-0.63,6.776,2.7c1.421,3.239,3.114,6.84,3.497,14.489c0.328,7.65,1.421,47.791,1.421,47.791
				S624.073,794.814,621.069,798.595z M627.899,669.175c-9.236,5.04-15.573,3.33-20.928-0.449c-2.35,6.749-3.716,8.82-5.519,9.271
				c-2.623,0.448-4.972-6.481-5.41-8.73c-0.438-1.71-1.694-4.591-0.164-11.43c-5.246-7.74-5.629-18.181-4.755-25.2
				c1.312-8.1,10.164-38.88,37.103-42.48c0,0,13.17-1.62,15.41,9.99h0.382c0,0,12.786,0.09,12.513,18.81
				C656.367,637.765,642.325,661.165,627.899,669.175z M602.763,627.505c-2.732,7.2-2.841,11.52-1.585,14.489
				c3.115-7.829,8.798-20.159,17.159-29.519C611.888,613.375,606.478,617.965,602.763,627.505z M639.975,615.445
				c-8.47,2.071-21.584,20.79-27.814,36.091c9.563,2.879,26.447,1.8,33.933-23.31C646.04,628.225,649.646,612.655,639.975,615.445z
				 M869.911,760.435c-5.082,14.58-19.343,45-38.359,37.889c-6.284,25.11-11.53,50.4-14.535,88.38c0,0-0.655,7.38-4.371,4.771
				c-3.661-2.16-9.781-12.24-10.983-26.191c-1.311-18.359,3.661-49.409,13.771-84.959c-2.951-7.921-4.972-19.26-3.225-35.371
				c0,0,2.569-29.879,20.765-56.88c0,0,2.186-3.15,3.442-2.16c1.421,0.99,0.766,10.71-0.382,15.39
				c-1.148,4.68-9.29,27.899-9.29,27.899s-5.082,15.661-3.661,27.99c9.563-24.209,31.31-73.079,44.807-57.689
				c4.536,5.31,6.612,16.92,6.612,29.43C874.447,740.005,872.862,751.705,869.911,760.435z M865.977,722.095
				c0,0-0.765-9.631-6.447,0.99c-4.918,8.91-13.771,25.74-20.928,48.51c7.486-1.35,14.699-8.099,16.884-11.52
				C859.037,754.855,867.288,740.815,865.977,722.095z M600.686,734.335c-1.037,21.78-6.119,58.41-42.129,76.5
				c-23.77,11.789-46.228,6.119-58.468,0.99c-0.273,8.01-0.82,11.429-1.584,12.779c-1.038,1.71-8.797,9.091-13.059-1.35
				c-1.913-4.949-2.897-13.949-3.443-21.959c-27.54-20.881-40.217-50.941-40.709-52.291c-0.601-0.99-6.885-11.789-0.601-25.019
				c5.901-11.971,25.19-23.94,42.567-28.8c0.601-24.48,2.35-42.931,4.426-51.39c2.514-9.81,5.684-0.99,8.416,5.67
				c2.295,4.949,3.661,26.28,3.77,43.289c11.366-0.899,18.087,0.449,30.764,4.23c16.502,4.949,27.54,18.811,26.556,34.559
				c-0.71,15.481-9.344,21.871-12.622,22.321c-3.442,0.449-8.798-3.599-8.798-3.599c-3.661-2.88-0.273-5.4,4.153-8.55
				c4.809-3.87,3.716-7.831,3.716-7.831c-1.803-8.639-23.224-14.669-44.534-14.669c-0.109,19.351,0.492,51.481,0.766,70.201
				c14.917,4.68,26.064,3.779,26.064,3.779s54.424-2.52,56.063-59.76c1.695-57.331-54.26-112.319-95.625-129.78
				c-41.31-17.82-64.697-5.4-66.719-3.69c-2.185,1.8-0.164,2.34-0.164,2.34s2.24,0.54,6.119,2.7c4.099,2.16,0.929,5.67,0.929,5.67
				c-7.048,3.69-14.971,1.35-16.502-3.959c-1.53-5.31,1.037-10.08,3.988-16.92c2.951-7.2,6.175-6.93,6.175-6.93
				c51.091-29.16,113.329,23.58,113.329,23.58C591.834,655.135,601.78,712.195,600.686,734.335z M446.485,731.364
				c-5.792,4.682-1.803,11.43-1.803,11.43c10.874,19.26,24.261,31.32,36.993,38.79c1.475-33.209,1.256-44.909,1.421-61.649
				C463.205,722.184,451.73,727.405,446.485,731.364z"/>
			<path fill="#FFFFFF" d="M978.105,724.524v11.88c0,2.611-1.257,4.68-2.841,4.68h-34.371c0,2.971,0.054,5.581,0.054,8.011
				c0,17.55-0.436,31.859-1.475,47.969c-0.165,2.429-1.366,4.23-2.787,4.23h-7.431c-0.766,0-1.476-0.54-1.968-1.441
				c-0.492-0.899-0.766-2.16-0.656-3.419c1.038-16.021,1.53-30.15,1.53-47.34c0-2.52,0-5.131-0.054-8.011h-33.988
				c-1.584,0-2.841-2.069-2.841-4.68v-11.88c0-2.609,1.257-4.68,2.841-4.68h33.497c-0.711-19.349-2.132-37.98-4.427-56.88
				c-0.109-1.17,0.055-2.34,0.492-3.241c0.438-0.899,1.094-1.439,1.803-1.439h8.034c1.256,0,2.295,1.439,2.568,3.51
				c2.24,19.531,3.661,38.52,4.371,58.05h34.808C976.793,719.844,978.105,722.004,978.105,724.524z"/>
			<g>
				<path fill="#FFFFFF" d="M518.722,567.655h-0.054 M518.285,567.745c-0.164,0-0.327-0.09-0.492-0.09
					C517.958,567.745,518.121,567.745,518.285,567.745h0.165H518.285z M518.285,567.745c-0.164,0-0.327-0.09-0.492-0.09
					C517.958,567.745,518.121,567.745,518.285,567.745h0.165H518.285z"/>
				<path fill="#FFFFFF" d="M931.33,630.295c-17.759-71.91-47.758-133.2-86.773-177.3c-39.944-45.091-86.773-68.94-135.405-68.94
					c-80.435,0-155.077,65.789-199.611,176.04c-0.492,1.17-0.601,2.7-0.327,4.049c0.273,1.44,0.928,2.43,1.748,2.88l6.23,3.51
					c0.382,0.18,0.766,0.27,1.093,0.27c1.148,0,2.24-0.99,2.897-2.52c20.437-49.5,48.086-90.63,79.996-119.07
					c32.95-29.34,70.271-44.91,107.92-44.91c45.517,0,89.395,22.14,126.99,63.9c36.665,40.77,65.134,97.74,82.347,164.61
					c0.492,1.98,1.694,3.33,3.005,3.33h7.432c0.875,0,1.694-0.72,2.131-1.89C931.549,633.085,931.658,631.645,931.33,630.295z
					 M518.285,567.745c-0.164,0-0.327-0.09-0.492-0.18C517.958,567.655,518.121,567.745,518.285,567.745h0.109H518.285z
					 M919.909,634.525c0.165,0.18,0.328,0.36,0.493,0.45C920.237,634.795,920.074,634.705,919.909,634.525z"/>
			</g>
		</g>
	</g>
</g>
</svg>
