<?xml version="1.0" encoding="utf-8"?>
<!-- Generator: Adobe Illustrator 16.0.0, SVG Export Plug-In . SVG Version: 6.00 Build 0)  -->
<!DOCTYPE svg PUBLIC "-//W3C//DTD SVG 1.1//EN" "http://www.w3.org/Graphics/SVG/1.1/DTD/svg11.dtd">
<svg version="1.1" id="Layer_1" xmlns="http://www.w3.org/2000/svg" xmlns:xlink="http://www.w3.org/1999/xlink" x="0px" y="0px"
	 width="104.396px" height="49.195px" viewBox="0 0 104.396 49.195" enable-background="new 0 0 104.396 49.195"
	 xml:space="preserve">
<path fill="#FFFFFF" d="M9.276,34.883h4.324c-0.242,0.509-0.544,0.97-0.896,1.371c-0.134,0.161-0.287,0.319-0.466,0.485
	c-0.109,0.102-0.231,0.192-0.359,0.277c-0.758,0.561-1.648,0.883-2.604,0.883c-2.753,0-4.983-2.682-4.983-5.989
	c0-3.307,2.23-5.988,4.983-5.988c1.778,0,3.503,0.93,4.324,2.807h4.139c-0.176-1.28-0.752-2.431-1.361-3.408
	c-0.44-0.661-0.972-1.237-1.587-1.715c-0.744-0.577-1.589-1.02-2.51-1.316c-0.917-0.296-1.878-0.445-2.855-0.445
	c-1.451,0-2.78,0.262-3.948,0.777c-1.169,0.518-2.171,1.241-2.979,2.151c-0.806,0.908-1.43,1.983-1.856,3.197
	C0.216,29.177,0,30.502,0,31.909c0,1.372,0.215,2.673,0.64,3.864c0.426,1.197,1.049,2.256,1.851,3.146
	c0.805,0.892,1.805,1.603,2.976,2.111c1.166,0.507,2.494,0.763,3.946,0.763c0.939,0,1.881-0.195,2.799-0.581
	c0.659-0.277,1.28-0.708,1.856-1.279v1.473h3.76V31.079L9.276,31.08V34.883 M71.963,28.978c-0.396-0.537-0.91-0.963-1.529-1.264
	c-0.601-0.292-1.271-0.489-1.991-0.589c-0.697-0.097-1.396-0.145-2.079-0.145c-0.756,0-1.52,0.076-2.27,0.226
	c-0.767,0.154-1.468,0.416-2.084,0.779c-0.63,0.371-1.155,0.87-1.563,1.483c-0.414,0.621-0.652,1.404-0.707,2.327l-0.009,0.293
	h4.435l0.017-0.232c0.057-0.609,0.245-1.04,0.56-1.28c0.336-0.256,0.82-0.387,1.442-0.387c0.302,0,0.586,0.021,0.845,0.061
	c0.228,0.035,0.428,0.104,0.597,0.205c0.151,0.092,0.271,0.221,0.366,0.393c0.094,0.172,0.143,0.424,0.143,0.749
	c0.016,0.35-0.101,0.485-0.189,0.558c-0.191,0.159-0.466,0.284-0.815,0.371c-0.387,0.099-0.84,0.173-1.348,0.222
	c-0.534,0.052-1.084,0.122-1.633,0.209c-0.556,0.088-1.115,0.208-1.664,0.356c-0.581,0.158-1.104,0.398-1.554,0.714
	c-0.466,0.325-0.852,0.766-1.144,1.308c-0.294,0.546-0.443,1.236-0.443,2.052c0,0.741,0.128,1.395,0.382,1.942
	c0.254,0.552,0.614,1.017,1.069,1.379c0.446,0.356,0.975,0.623,1.567,0.792c0.578,0.163,1.207,0.245,1.871,0.245
	c0.853,0,1.699-0.126,2.516-0.377c0.602-0.184,1.151-0.472,1.643-0.854c0.006,0.024,0.012,0.048,0.018,0.072v0.819h4.174
	l-0.005-10.253C72.578,30.265,72.371,29.533,71.963,28.978z M68.134,35.875c0,0.186-0.021,0.445-0.062,0.772
	c-0.036,0.292-0.136,0.585-0.296,0.871c-0.152,0.272-0.397,0.514-0.727,0.716c-0.324,0.2-0.811,0.301-1.444,0.301
	c-0.262,0-0.521-0.023-0.768-0.069c-0.22-0.041-0.413-0.113-0.573-0.216c-0.146-0.092-0.259-0.216-0.346-0.378
	c-0.087-0.163-0.132-0.377-0.132-0.636c0-0.276,0.045-0.499,0.132-0.662c0.091-0.169,0.212-0.312,0.358-0.422
	c0.159-0.119,0.353-0.216,0.572-0.287c0.249-0.081,0.502-0.146,0.752-0.192c0.28-0.05,0.563-0.092,0.838-0.124
	c0.287-0.034,0.574-0.078,0.854-0.133c0.279-0.055,0.545-0.124,0.789-0.207c0.018-0.006,0.033-0.014,0.051-0.02V35.875z
	 M20.484,41.399h4.444v-19.11h-4.444V41.399z M39.446,29.012c-0.633-0.644-1.409-1.149-2.304-1.503
	c-0.891-0.351-1.894-0.528-2.98-0.528c-1.089,0-2.088,0.178-2.969,0.528c-0.886,0.354-1.657,0.859-2.291,1.503
	c-0.635,0.645-1.131,1.434-1.474,2.348c-0.341,0.904-0.513,1.924-0.513,3.028c0,1.106,0.172,2.122,0.513,3.019
	c0.344,0.903,0.839,1.688,1.474,2.333c0.636,0.646,1.407,1.146,2.294,1.491c0.88,0.341,1.878,0.514,2.966,0.514
	c1.086,0,2.088-0.172,2.977-0.514c0.896-0.345,1.673-0.846,2.308-1.491c0.635-0.644,1.13-1.428,1.475-2.333
	c0.34-0.898,0.513-1.914,0.513-3.019c0-1.104-0.173-2.122-0.512-3.028C40.577,30.445,40.081,29.655,39.446,29.012z M36.844,35.875
	c-0.093,0.455-0.252,0.87-0.474,1.231c-0.211,0.343-0.5,0.621-0.857,0.826c-0.354,0.203-0.81,0.307-1.351,0.307
	c-0.54,0-0.99-0.103-1.335-0.305c-0.352-0.206-0.637-0.484-0.849-0.828c-0.222-0.362-0.381-0.776-0.473-1.231
	c-0.097-0.476-0.146-0.972-0.146-1.475s0.05-1.004,0.146-1.488c0.092-0.462,0.25-0.875,0.472-1.228
	c0.212-0.338,0.5-0.619,0.854-0.835c0.345-0.208,0.792-0.314,1.33-0.314c0.539,0,0.991,0.106,1.347,0.317
	c0.365,0.218,0.648,0.49,0.862,0.832c0.222,0.351,0.38,0.764,0.473,1.228c0.097,0.488,0.146,0.989,0.146,1.488
	C36.989,34.898,36.94,35.395,36.844,35.875z M55.811,28.776c-0.56-0.604-1.197-1.06-1.897-1.354
	c-0.696-0.293-1.412-0.441-2.129-0.441c-0.87,0-1.722,0.17-2.528,0.509c-0.497,0.208-0.935,0.492-1.311,0.847v-6.047h-4.444v19.113
	h4.246v-0.974c0.355,0.354,0.777,0.633,1.269,0.828c0.814,0.323,1.745,0.487,2.766,0.487c0.716,0,1.433-0.147,2.13-0.44
	c0.7-0.295,1.338-0.751,1.896-1.355c0.555-0.599,1.01-1.373,1.353-2.302c0.34-0.921,0.513-2.026,0.513-3.284
	c0-1.256-0.172-2.36-0.512-3.283C56.819,30.152,56.364,29.379,55.811,28.776z M53.059,35.901c-0.109,0.466-0.282,0.881-0.512,1.233
	c-0.224,0.342-0.505,0.615-0.837,0.814c-0.32,0.192-0.723,0.29-1.197,0.29c-0.459,0-0.858-0.099-1.189-0.292
	c-0.339-0.198-0.623-0.473-0.846-0.813c-0.23-0.354-0.402-0.769-0.512-1.233c-0.112-0.479-0.17-0.984-0.17-1.501
	c0-0.534,0.058-1.047,0.17-1.526c0.109-0.466,0.281-0.882,0.512-1.234c0.225-0.345,0.502-0.61,0.847-0.813
	c0.331-0.193,0.73-0.292,1.188-0.292c0.474,0,0.877,0.098,1.198,0.29c0.337,0.203,0.61,0.47,0.835,0.814
	c0.23,0.352,0.402,0.768,0.513,1.235c0.112,0.48,0.17,0.994,0.17,1.525C53.229,34.915,53.171,35.42,53.059,35.901z M75.027,22.289
	v19.11h4.443v-19.11H75.027z"/>
<path fill="#FFFFFF" d="M104.209,21.114C103.259,20.115,75.008,0,75.008,0v14.607l17.744,12.791c0.031,0.019,0.79,0.479,0.839,1.113
	c-0.049,0.634-0.839,1.108-0.839,1.108l-7.822,5.627v13.948c0,0,18.327-13.051,19.268-13.992l0.199-0.199V21.311L104.209,21.114"/>
</svg>
