<?xml version="1.0" encoding="utf-8"?>
<!-- Generator: Adobe Illustrator 16.0.0, SVG Export Plug-In . SVG Version: 6.00 Build 0)  -->
<!DOCTYPE svg PUBLIC "-//W3C//DTD SVG 1.1//EN" "http://www.w3.org/Graphics/SVG/1.1/DTD/svg11.dtd">
<svg version="1.1" id="Layer_1" xmlns="http://www.w3.org/2000/svg" xmlns:xlink="http://www.w3.org/1999/xlink" x="0px" y="0px"
	 width="170.232px" height="72.697px" viewBox="0 0 170.232 72.697" enable-background="new 0 0 170.232 72.697"
	 xml:space="preserve">
<path fill-rule="evenodd" clip-rule="evenodd" fill="#FFFFFF" d="M49.393,72.394H30.909V46.031h-11.97v26.362H0V4.365h18.939v25.378
	h11.97V4.365h18.484V72.394L49.393,72.394z M134.164,72.697c18.938,0,34.393-15.758,34.393-34.924
	c0-19.469-15.454-34.544-34.393-34.544c-19.166,0-28.863,13.939-31.212,19.621c0-8.409-8.409-18.484-18.181-18.484h-31.59v68.028
	h29.393c11.969,0,20.378-10.227,20.378-19.166C105.603,58.758,114.998,72.697,134.164,72.697L134.164,72.697z M80.226,45.046
	c2.727,0,4.924,2.651,4.924,5.682c0,3.182-2.197,5.833-4.924,5.833h-9.394V45.046H80.226L80.226,45.046z M80.226,19.517
	c2.727,0,4.924,2.651,4.924,5.682c0,3.03-2.197,5.682-4.924,5.682h-9.394V19.517H80.226L80.226,19.517z M92.65,37.773
	c2.196-0.151,5.757-2.651,7.12-4.167c-0.53,1.818-0.53,7.576,0,9.394C98.255,40.804,94.846,38.152,92.65,37.773L92.65,37.773z
	 M116.891,37.773c0-9.545,7.728-17.272,17.272-17.272s17.272,7.727,17.272,17.272c0,9.621-7.728,17.348-17.272,17.348
	S116.891,47.395,116.891,37.773L116.891,37.773z M134.164,51.409c7.349,0,13.56-6.061,13.56-13.636
	c0-7.576-6.211-13.561-13.56-13.561c-7.576,0-13.636,5.985-13.636,13.561C120.528,45.349,126.587,51.409,134.164,51.409
	L134.164,51.409z"/>
</svg>
