<?xml version="1.0" encoding="utf-8"?>
<!-- Generator: Adobe Illustrator 16.0.0, SVG Export Plug-In . SVG Version: 6.00 Build 0)  -->
<!DOCTYPE svg PUBLIC "-//W3C//DTD SVG 1.1//EN" "http://www.w3.org/Graphics/SVG/1.1/DTD/svg11.dtd">
<svg version="1.1" id="HISTORY" xmlns="http://www.w3.org/2000/svg" xmlns:xlink="http://www.w3.org/1999/xlink" x="0px" y="0px"
	 width="232.685px" height="205.905px" viewBox="4.438 1 232.685 205.905" enable-background="new 4.438 1 232.685 205.905"
	 xml:space="preserve">
<g>
	<polygon fill="#FFFFFF" points="218.896,189.084 173.804,167.921 128.403,189.084 	"/>
	<polygon fill="#FFFFFF" points="92.057,22.929 67.19,20.329 67.19,18.929 92.057,21.629 	"/>
	<g>
		<rect x="67.353" y="19.263" fill="#FFFFFF" width="0.596" height="150.065"/>
		<rect x="173.485" y="19.263" fill="#FFFFFF" width="0.597" height="150.065"/>
	</g>
	<g>
		<polygon fill="#FFFFFF" points="22.8,1 67.635,20.685 112.661,1 		"/>
	</g>
	<polygon fill="#FFFFFF" points="67.635,18.683 67.633,79.217 92.212,62.637 92.212,22.162 	"/>
	<rect x="67.634" y="78.796" fill="#FFFFFF" width="106.167" height="0.851"/>
	<polygon fill="#FFFFFF" points="22.539,189.084 67.633,167.921 113.031,189.084 	"/>
	<polygon fill="#FFFFFF" points="67.635,79.217 67.633,169.923 92.212,167.717 92.212,102.296 	"/>
	<polygon fill="#FFFFFF" points="173.801,79.217 173.804,176.962 143.794,173.214 149.224,167.616 149.224,102.296 	"/>
	<polygon fill="#FFFFFF" points="173.801,17.796 173.804,79.283 149.224,62.637 149.224,20.563 	"/>
	<polygon fill="#FFFFFF" points="173.801,19.629 173.804,170.423 197.938,167.711 197.938,22.327 	"/>
	<polygon fill="#FFFFFF" points="67.635,18.683 67.633,169.923 43.498,167.711 43.498,22.228 	"/>
	<polygon fill="#FFFFFF" points="67.634,79.217 92.212,103.217 149.224,103.216 173.801,79.217 	"/>
	<polygon fill="#FFFFFF" points="149.224,62.539 92.212,62.539 67.634,79.217 173.801,79.217 	"/>
	<polygon fill="#FFFFFF" points="113.031,189.084 92.212,167.616 67.633,168.922 108.943,187.268 112.861,189.045 	"/>
	<polygon fill="#FFFFFF" points="22.539,189.084 43.498,167.61 67.633,168.922 23.735,188.549 22.613,189.067 	"/>
	<polygon fill="#FFFFFF" points="128.403,189.084 143.794,173.214 160.884,175.105 131.569,187.721 128.631,189.036 	"/>
	<polygon fill="#FFFFFF" points="218.896,189.084 197.938,167.61 173.804,168.922 215.834,187.715 218.709,189.039 	"/>
	<polygon fill="#FFFFFF" points="128.774,1 148.881,21.906 149.224,22.262 172.778,19.26 130.999,1.923 128.885,1.025 	"/>
	<polygon fill="#FFFFFF" points="112.661,1 92.212,22.262 67.635,19.684 111.383,1.53 112.569,1.02 	"/>
	<polygon fill="#FFFFFF" points="22.8,1 43.498,22.327 67.635,19.684 25.067,1.944 22.944,1.027 	"/>
	<polygon fill="#FFFFFF" points="22.8,1 112.661,1 67.635,19.684 	"/>
	<polygon fill="#FFFFFF" points="22.539,189.084 67.633,168.922 113.031,189.084 	"/>
	<polygon fill="#FFFFFF" points="128.774,1 218.635,1 218.595,1.031 217.774,1.357 173.801,19.684 	"/>
	<polygon fill="#FFFFFF" points="218.635,1 197.938,22.327 197.938,22.513 173.801,19.684 217.519,1.465 218.547,1.036 	"/>
	<polygon fill="#FFFFFF" points="218.896,189.084 173.804,168.922 128.403,189.084 	"/>
	<polygon fill="#FFFFFF" points="173.801,79.218 149.224,103.216 149.224,167.616 143.794,173.214 173.804,176.962 	"/>
	<polygon fill="#FFFFFF" points="173.801,79.218 149.224,103.216 149.224,167.616 143.794,173.214 173.804,176.962 	"/>
	<polygon fill="#FFFFFF" points="173.918,19.7 173.804,168.922 197.938,167.61 197.938,22.228 	"/>
	<polygon fill="#FFFFFF" points="173.801,19.684 172.778,19.26 149.224,22.262 149.224,62.539 173.804,79.283 	"/>
	<polygon fill="#FFFFFF" points="128.774,1 218.635,1 173.801,19.684 	"/>
	<polygon fill="#FFFFFF" points="128.774,1 218.635,1 173.801,19.684 	"/>
	<polygon fill="#FFFFFF" points="128.774,1 218.635,1 173.801,19.684 	"/>
	<polygon fill="#FFFFFF" points="128.774,1 218.635,1 173.801,19.684 	"/>
	<polygon fill="#FFFFFF" points="173.801,19.684 172.778,19.26 149.224,22.262 149.224,62.539 173.804,79.283 	"/>
	<polygon fill="#FFFFFF" points="218.635,1 197.938,22.327 173.801,19.684 	"/>
	<polygon fill="#FFFFFF" points="218.635,1 197.938,22.327 173.801,19.684 	"/>
	<polygon fill="#FFFFFF" points="218.635,1 197.938,22.327 173.801,19.684 	"/>
	<polygon fill="#FFFFFF" points="218.635,1 197.938,22.327 173.801,19.684 	"/>
	<polygon fill="#FFFFFF" points="173.918,19.7 173.804,168.922 197.938,167.61 197.938,22.228 	"/>
	<polygon fill="#FFFFFF" points="173.918,19.7 173.804,168.922 197.938,167.61 197.938,22.327 	"/>
	<polygon fill="#FFFFFF" points="173.918,19.7 173.804,168.922 197.938,167.61 197.938,22.327 	"/>
	<polygon fill="#FFFFFF" points="173.918,19.7 173.804,168.922 197.938,167.61 197.938,22.327 	"/>
	<polygon fill="#FFFFFF" points="197.938,167.61 197.938,22.228 173.918,19.7 173.974,168.779 	"/>
	<polygon fill="#FFFFFF" points="173.801,19.684 173.804,79.283 149.224,62.539 149.224,22.262 172.778,19.26 	"/>
	<polygon fill="#FFFFFF" points="67.635,19.684 67.633,79.174 92.212,62.513 92.212,22.162 	"/>
	<polygon fill="#FFFFFF" points="67.635,19.684 67.633,79.174 92.212,62.513 92.212,22.162 	"/>
	<polygon fill="#FFFFFF" points="67.634,79.217 92.212,103.217 149.224,103.216 173.801,79.217 	"/>
	<polygon fill="#FFFFFF" points="173.801,19.684 173.804,79.283 149.224,62.539 149.224,22.262 172.778,19.26 	"/>
	<polygon fill="#FFFFFF" points="173.801,19.684 173.804,79.283 149.224,62.539 149.224,22.262 172.778,19.26 	"/>
	<polygon fill="#FFFFFF" points="112.661,1 92.212,22.262 67.635,19.684 	"/>
	<polygon fill="#FFFFFF" points="67.635,19.684 67.633,79.174 92.212,62.513 92.212,22.162 	"/>
	<polygon fill="#FFFFFF" points="92.212,167.616 92.212,103.217 67.635,79.217 67.633,168.922 	"/>
	<polygon fill="#FFFFFF" points="67.634,79.217 92.212,103.217 149.224,103.216 173.801,79.217 	"/>
	<polygon fill="#FFFFFF" points="173.801,19.684 173.804,79.283 149.224,62.539 149.224,22.262 172.778,19.26 	"/>
	<polygon fill="#FFFFFF" points="173.801,79.218 149.224,103.216 149.224,167.616 147.961,168.917 170.899,170.244 173.804,168.922 
			"/>
	<polygon fill="#FFFFFF" points="128.403,189.084 149.224,167.616 149.224,103.216 173.801,79.217 173.804,168.922 	"/>
	<polygon fill="#FFFFFF" points="67.635,79.217 67.633,168.922 92.212,167.717 92.212,103.217 	"/>
	<polygon fill="#FFFFFF" points="67.634,79.217 92.212,103.217 149.224,103.216 173.801,79.217 	"/>
	<polygon fill="#FFFFFF" points="173.801,19.684 173.804,79.283 149.224,62.539 149.224,22.262 172.782,19.265 	"/>
	<polygon fill="#FFFFFF" points="173.801,19.684 173.804,79.283 149.224,62.539 149.224,22.262 172.778,19.26 	"/>
	<polygon fill="#FFFFFF" points="173.801,19.684 173.804,79.283 149.224,62.539 149.224,22.262 172.778,19.26 	"/>
	<polygon fill="#FFFFFF" points="173.801,79.217 173.804,168.922 160.065,174.973 143.794,173.214 149.224,167.616 149.224,103.216 
			"/>
	<polygon opacity="0.9" fill="#FFFFFF" enable-background="new    " points="67.634,79.217 92.212,103.217 149.224,103.216 
		173.801,79.217 	"/>
	<polygon fill="#FFFFFF" points="128.774,1 149.224,22.262 173.801,19.684 	"/>
	<polygon fill="#FFFFFF" points="149.224,62.539 92.212,62.539 67.634,79.217 173.801,79.217 	"/>
	<polygon fill="#FFFFFF" points="67.635,19.684 67.633,168.922 43.498,167.711 43.498,22.228 	"/>
	<polygon fill="#FFFFFF" points="173.801,19.684 173.804,79.283 149.224,62.539 149.224,22.262 172.778,19.26 	"/>
	<polygon fill="#FFFFFF" points="173.918,19.7 173.804,168.922 197.938,167.61 197.938,22.228 	"/>
	<polygon fill="#FFFFFF" points="173.918,19.7 173.804,168.922 197.938,167.61 197.938,22.228 	"/>
	<polygon opacity="0.49" fill="#FFFFFF" enable-background="new    " points="197.938,94.006 197.938,22.327 173.853,19.726 
		173.851,92.171 	"/>
	<polygon fill="#FFFFFF" points="149.224,62.539 92.212,62.539 67.634,79.217 173.801,79.217 	"/>
	<polygon fill="#FFFFFF" points="149.224,62.539 92.212,62.539 67.634,79.217 173.801,79.217 	"/>
	<polygon opacity="0.5" fill="#FFFFFF" enable-background="new    " points="149.224,62.539 92.212,62.539 67.634,79.217 
		173.801,79.217 	"/>
	<polygon fill="#FFFFFF" points="67.634,79.217 92.212,103.217 149.224,103.216 173.801,79.217 	"/>
	<polygon fill="#FFFFFF" points="67.634,79.217 92.212,103.217 149.224,103.216 173.801,79.217 	"/>
	<polygon fill="#FFFFFF" points="67.634,79.217 92.212,103.217 149.224,103.216 173.801,79.217 	"/>
	<polygon opacity="0.52" fill="#FFFFFF" enable-background="new    " points="67.635,79.217 67.633,168.922 92.212,167.717 
		92.212,103.217 	"/>
	<polygon fill="#FFFFFF" points="128.403,189.084 147.961,168.917 170.899,170.244 	"/>
	<polygon fill="#FFFFFF" points="149.224,22.262 149.224,40.445 173.801,56.462 173.801,19.688 128.774,1 	"/>
	<polygon fill="#FFFFFF" points="218.896,189.084 173.804,168.922 128.403,189.084 	"/>
	<polygon fill="#FFFFFF" points="197.938,164.533 173.804,165.697 173.804,168.922 181.037,172.156 201.198,170.951 197.938,167.61 
			"/>
	<polygon fill="#FFFFFF" points="218.896,189.084 197.938,167.61 173.804,168.922 	"/>
	<polygon fill="#FFFFFF" points="173.801,79.218 149.224,103.216 149.224,167.616 143.794,173.214 160.201,175.018 173.804,168.922 
			"/>
	<polygon fill="#FFFFFF" points="173.801,79.218 149.224,103.216 149.224,167.616 143.794,173.214 160.201,175.018 173.804,168.922 
			"/>
	<polygon fill="#FFFFFF" points="149.224,62.539 92.212,62.539 67.634,79.217 173.801,79.217 	"/>
	<polygon fill="#FFFFFF" points="149.224,62.539 92.212,62.539 67.634,79.217 173.801,79.217 	"/>
	<polygon fill="#FFFFFF" points="149.224,62.539 92.212,62.539 67.634,79.217 173.801,79.217 	"/>
	<polygon fill="#FFFFFF" points="173.801,19.684 173.804,79.283 149.224,62.539 149.224,22.262 172.778,19.26 	"/>
	<polygon fill="#FFFFFF" points="173.801,19.684 173.634,79.442 149.224,62.539 149.224,22.262 172.778,19.26 	"/>
	<polygon fill="#FFFFFF" points="173.918,19.7 173.804,168.922 197.938,167.61 197.938,22.228 	"/>
	<polygon fill="#FFFFFF" points="67.634,79.217 92.212,103.217 149.224,103.216 173.801,79.217 	"/>
	<polygon fill="#FFFFFF" points="173.804,168.938 173.801,79.217 149.224,62.539 125.267,79.307 149.224,103.216 149.224,167.616 
		143.794,173.214 160.11,175.018 	"/>
	<polygon fill="#FFFFFF" points="92.212,167.616 92.212,103.217 67.635,79.217 67.633,168.922 	"/>
	<polygon fill="#FFFFFF" points="113.031,189.084 92.212,167.616 67.633,168.922 	"/>
	<polygon fill="#FFFFFF" points="92.212,167.616 92.212,103.217 67.635,79.217 67.633,168.922 	"/>
	<polygon fill="#FFFFFF" points="92.212,167.616 92.212,103.217 67.635,79.217 67.633,168.922 	"/>
	<polygon fill="#FFFFFF" points="22.539,189.084 43.498,167.61 67.633,168.922 	"/>
	<polygon fill="#FFFFFF" points="22.539,189.084 43.498,167.61 67.633,168.922 	"/>
	<polygon fill="#FFFFFF" points="22.8,1 43.498,22.327 43.498,167.711 67.633,168.922 67.635,19.684 	"/>
	<polygon fill="#FFFFFF" points="89.857,21.925 67.635,19.684 67.633,168.922 89.857,167.741 89.857,100.896 67.634,79.217 
		89.857,64.021 	"/>
	<polygon fill="#FFFFFF" points="112.661,1 92.212,22.262 67.635,19.684 	"/>
	<polygon fill="#FFFFFF" points="149.224,22.262 149.224,40.445 173.801,68.063 173.801,19.688 128.774,1 	"/>
	<polygon fill="#FFFFFF" points="173.801,79.218 149.224,103.216 149.224,167.616 143.794,173.214 160.065,174.973 173.804,168.922 
			"/>
	<polygon fill="#FFFFFF" points="173.801,79.218 149.224,103.216 149.224,167.616 143.794,173.214 160.065,175.018 173.804,168.922 
			"/>
	<polygon fill="#FFFFFF" points="173.801,79.218 149.224,103.216 149.224,167.616 143.794,173.214 160.065,175.018 173.804,168.922 
			"/>
	<polygon fill="#FFFFFF" points="218.896,189.084 173.804,168.922 128.403,189.084 	"/>
	<polygon fill="#FFFFFF" points="218.896,189.084 173.804,168.922 128.403,189.084 	"/>
	<polygon opacity="0.65" fill="#FFFFFF" enable-background="new    " points="67.635,79.217 67.633,168.922 92.212,167.717 
		92.212,103.217 	"/>
	<polygon opacity="0.65" fill="#FFFFFF" enable-background="new    " points="67.635,79.217 67.633,168.922 92.212,167.717 
		92.212,103.217 	"/>
	<polygon fill="#FFFFFF" points="113.031,189.084 92.212,167.616 67.633,168.922 	"/>
	<polygon fill="#FFFFFF" points="22.539,189.084 67.633,168.922 113.031,189.084 	"/>
	<polygon fill="#FFFFFF" points="22.539,189.084 67.633,168.922 113.031,189.084 	"/>
	<polygon fill="#FFFFFF" points="22.539,189.084 43.498,167.61 67.633,168.922 	"/>
	<polygon fill="#FFFFFF" points="67.635,19.684 67.633,168.922 43.498,167.711 43.498,22.228 	"/>
	<polygon fill="#FFFFFF" points="67.635,19.684 67.633,168.922 43.498,167.711 43.498,22.228 	"/>
	<polygon fill="#FFFFFF" points="67.635,19.684 67.633,168.922 43.498,167.711 43.498,22.228 	"/>
	<polygon fill="#FFFFFF" points="67.635,19.684 67.633,168.922 43.498,167.711 43.498,22.228 	"/>
	<polygon fill="#FFFFFF" points="67.635,19.684 67.633,168.922 43.498,167.711 43.498,22.228 	"/>
	<polygon fill="#FFFFFF" points="67.635,19.684 67.633,168.922 43.498,167.711 43.498,22.228 	"/>
	<polygon fill="#FFFFFF" points="67.635,19.684 67.633,168.922 43.498,167.711 43.498,22.228 	"/>
	<polygon fill="#FFFFFF" points="67.635,19.684 67.633,168.922 43.498,167.711 43.498,22.228 	"/>
	<polygon fill="#FFFFFF" points="67.635,19.684 67.633,168.922 43.498,167.711 43.498,22.228 	"/>
	<polygon fill="#FFFFFF" points="67.635,19.684 67.633,168.922 43.498,167.711 43.498,22.228 	"/>
	<polygon opacity="0.8" fill="#FFFFFF" enable-background="new    " points="67.635,19.684 67.633,168.922 43.498,167.711 
		43.498,22.228 	"/>
	<polygon fill="#FFFFFF" points="22.8,1 112.661,1 67.635,19.684 	"/>
	<polygon fill="#FFFFFF" points="22.8,1 112.661,1 67.635,19.684 	"/>
	<polygon fill="#FFFFFF" points="112.661,1 92.212,22.262 67.635,19.684 	"/>
	<polygon fill="#FFFFFF" points="22.8,1 43.498,22.327 67.635,19.684 	"/>
	<polygon fill="#FFFFFF" points="67.635,19.684 67.633,79.174 92.212,62.513 92.212,22.162 	"/>
	<polygon fill="#FFFFFF" points="149.224,62.539 92.212,62.539 67.634,79.217 173.801,79.217 	"/>
	<polygon fill="#FFFFFF" points="128.774,1 149.224,22.262 173.801,19.684 	"/>
	<polygon fill="#FFFFFF" points="128.774,1 218.635,1 173.801,19.684 	"/>
	<polygon fill="#FFFFFF" points="128.774,1 218.635,1 173.801,19.684 	"/>
	<polygon fill="#FFFFFF" points="128.774,1 218.635,1 173.801,19.684 	"/>
	<polygon fill="#FFFFFF" points="174.033,19.7 173.918,168.922 197.938,167.61 197.938,22.228 	"/>
	<polygon fill="#FFFFFF" points="197.938,167.61 197.938,22.228 173.918,19.7 173.974,168.779 218.896,189.084 	"/>
	<polygon fill="#FFFFFF" points="218.896,189.084 173.804,168.922 128.403,189.084 	"/>
	<polygon fill="#FFFFFF" points="173.801,79.218 149.224,103.216 149.224,167.616 128.403,189.084 173.804,168.922 	"/>
	<polygon fill="#FFFFFF" points="197.938,31.674 197.938,22.327 204.548,15.516 189.36,13.241 173.853,19.726 173.851,29.839 	"/>
	<polygon fill="#FFFFFF" points="149.224,62.539 92.212,62.539 67.634,79.217 92.212,103.217 149.224,103.216 173.801,79.217 	"/>
	<polygon fill="#FFFFFF" points="43.498,146.195 43.498,167.61 36.875,174.396 50.52,176.573 67.633,168.922 67.633,146.195 	"/>
	<polygon fill="#FFFFFF" points="149.224,22.262 149.224,28.626 173.801,28.048 173.801,19.688 159.728,13.691 142.125,14.881 	"/>
	<polygon fill="#FFFFFF" points="149.224,22.262 149.224,40.445 173.801,35.146 173.801,19.688 128.774,1 	"/>
	<polygon fill="#FFFFFF" points="149.224,22.262 149.224,40.445 173.801,35.146 173.801,19.688 128.774,1 	"/>
	<circle fill="#FFFFFF" cx="173.912" cy="79.148" r="1.95"/>
	<path fill="#FFFFFF" d="M173.987,79.108c0,0.753,0.076,1.365-0.225,1.365c-0.459,0-1.007-0.649-1.007-1.403
		c0-0.753,0.548-1.324,1.007-1.324C174.063,77.746,173.987,78.354,173.987,79.108z"/>
	<polygon fill="#FFFFFF" points="43.498,146.195 43.498,167.61 36.875,174.396 50.52,176.573 67.633,168.922 67.633,146.195 	"/>
	<polygon fill="#FFFFFF" points="43.498,22.228 43.498,167.61 22.539,189.084 67.633,168.922 67.635,18.683 	"/>
	<polygon fill="#FFFFFF" points="22.8,1 43.498,22.327 43.498,167.711 67.633,169.923 67.635,19.684 	"/>
	<polygon fill="#FFFFFF" points="67.635,19.684 67.633,79.174 92.212,62.513 92.212,22.262 112.661,1 	"/>
	<polygon fill="#FFFFFF" points="149.224,22.262 149.224,28.626 173.801,28.048 173.801,19.688 159.728,13.691 142.125,14.881 	"/>
	<polygon fill="#FFFFFF" points="149.224,22.262 149.224,40.445 173.801,35.146 173.801,19.688 128.774,1 	"/>
	<polygon fill="#FFFFFF" points="149.224,22.262 149.224,28.626 173.801,28.048 173.801,19.688 159.728,13.691 142.125,14.881 	"/>
	<polygon fill="#FFFFFF" points="113.031,189.084 92.212,167.616 92.212,103.217 67.635,79.217 67.633,168.922 67.633,168.922 	"/>
	<polygon fill="#FFFFFF" points="43.498,22.228 43.498,167.61 22.539,189.084 67.633,168.922 67.635,18.683 	"/>
	<polygon opacity="0.89" fill="#FFFFFF" enable-background="new    " points="197.938,31.674 197.938,22.327 204.548,15.516 
		189.36,13.241 173.853,19.726 173.851,29.839 	"/>
	<polygon opacity="0.89" fill="#FFFFFF" enable-background="new    " points="197.938,31.674 197.938,22.327 204.548,15.516 
		189.36,13.241 173.853,19.726 173.851,29.839 	"/>
	<polygon fill="#FFFFFF" points="218.635,1 197.938,22.327 173.801,19.684 	"/>
	<polygon fill="#FFFFFF" points="173.801,79.218 149.224,103.216 149.224,167.616 128.403,189.084 173.804,168.922 	"/>
	<polygon fill="#FFFFFF" points="173.801,79.218 149.224,103.216 149.224,167.616 128.403,189.084 173.804,168.922 	"/>
	<polygon fill="#FFFFFF" points="173.801,79.218 149.224,103.216 149.224,167.616 128.403,189.084 173.804,168.922 	"/>
	<path fill="#FFFFFF" d="M190.957,174.129c-9.133-4.232-17.153-5.207-17.153-5.207l33.487,14.974
		C207.291,183.895,200.09,178.362,190.957,174.129z"/>
	<polygon fill="#FFFFFF" points="197.938,31.674 197.938,22.327 204.548,15.516 189.36,13.241 173.853,19.726 173.851,29.839 	"/>
	<polygon fill="#FFFFFF" points="149.224,22.262 149.224,40.445 173.801,68.063 173.801,19.688 128.774,1 	"/>
	<polygon fill="#FFFFFF" points="149.224,62.539 92.212,62.539 67.634,79.217 92.212,103.217 149.224,103.216 173.801,79.217 	"/>
	<g>
		<path fill="#FFFFFF" d="M22.991,1.079l44.644,18.604c0,0-1.278-3.839-21.978-12.538C33.268,1.938,22.991,1.079,22.991,1.079z"/>
	</g>
	<path fill="#FFFFFF" d="M22.539,189.084c0,0,6.168-6.088,18.318-11.688c8.604-3.965,10.85-6.25,26.776-8.475
		c-10.921,4.853-28.224,12.55-28.224,12.55L22.539,189.084z"/>
	<polygon fill="#FFFFFF" points="218.635,1 197.938,22.327 173.916,21.668 173.801,19.684 	"/>
	<polygon fill="#FFFFFF" points="67.635,19.684 67.633,79.174 92.212,62.513 92.212,22.262 112.661,1 	"/>
	<polygon fill="#FFFFFF" points="67.635,19.684 67.633,79.174 92.212,62.513 92.212,22.262 112.661,1 	"/>
	<path fill="#FFFFFF" d="M22.539,189.084c0,0,6.812-3.193,16.612-7.645c9.8-4.449,12.941-5.605,28.482-12.519
		c-10.921,4.853-28.224,12.549-28.224,12.549L22.539,189.084z"/>
	<polygon fill="#FFFFFF" points="173.801,79.217 149.224,62.539 170.957,79.217 	"/>
	<rect x="154.99" y="66.329" fill="#FFFFFF" width="18.811" height="12.889"/>
	<path fill="#FFFFFF" d="M170.407,76.912l3.457,2.275h-4.399C169.465,79.188,168.907,77.429,170.407,76.912z"/>
	<polygon fill="#FFFFFF" points="174.157,168.896 173.801,79.396 173.804,168.922 	"/>
	<path fill="#FFFFFF" d="M128.403,189.084c15.787-7.154,21.021-9.688,26.054-11.955c5.089-2.291,11.101-4.6,19.347-8.207
		L128.403,189.084z"/>
	<polygon opacity="0.49" fill="#FFFFFF" enable-background="new    " points="197.938,31.674 197.938,22.327 204.548,15.516 
		189.36,13.241 173.853,19.726 173.851,29.839 	"/>
	<path fill="#FFFFFF" d="M173.865,19.763l0.167-0.042c0,0,2.324,3.225,2.324,12.524c0,9.399-0.649,13.399-1,20.351
		c-0.433,8.602-1.475,21.8-1.475,21.8L173.865,19.763z"/>
	<path fill="#FFFFFF" d="M168.451,75.605c0,0,3.782,2.475,4.187,2.743c0.403,0.27,1.237,0.789,1.237,0.789l0.009,0.116h-0.072
		L168.451,75.605z"/>
	<polygon fill="#FFFFFF" points="173.801,79.217 149.224,62.539 173.71,79.217 	"/>
	<path fill="#FFFFFF" d="M106.89,79.179c0,0,13.583-0.051,15.632-0.066c2.051-0.017,7.601-0.066,12.334-0.1
		c4.732-0.034,13.666-0.018,17.149,0c3.483,0.017,11.783,0.065,14.033,0.083c2.25,0.017,7.761,0.009,7.761,0.009v0.111
		L106.89,79.179z"/>
	<path fill="#FFFFFF" d="M92.212,62.483c-0.691,0.36-5.801,3.807-7.477,4.895c-1.649,1.07-4.371,2.79-6.836,4.479
		c-2.534,1.733-5.874,4.098-7.057,4.936c-1.183,0.839-3.208,2.317-3.208,2.317v0.107l24.579-16.678l0,0L92.212,62.483L92.212,62.483
		z"/>
	<path fill="#FFFFFF" d="M128.774,1l45.026,18.685c-7.228-3.071-10.827-4.838-14.644-6.438C156.058,11.946,146.558,8.329,128.774,1z
		"/>
	<path fill="#FFFFFF" d="M128.774,1l45.026,18.685c-7.228-3.071-10.577-4.571-14.719-6.313C155.983,12.067,146.558,8.329,128.774,1z
		"/>
	<g>
		<path fill="#FFFFFF" d="M145.707,79.217c0,0,0.631,0.027,1.604,0.031c2.533,0.012,26.489,0.035,26.489,0.035v-0.132
			L145.707,79.217z"/>
	</g>
	<polygon fill="#FFFFFF" points="173.801,79.12 101.94,79.154 67.634,79.108 67.634,79.217 173.801,79.217 	"/>
	<path fill="#FFFFFF" d="M86.72,66.266c-1.375,0.659-12.122,8.134-13.293,8.901c-1.326,0.871-2.741,1.921-3.471,2.474L86.72,66.266z
		"/>
	<path fill="#FFFFFF" d="M84.419,67.827c-2.596,1.566-6.354,4.05-8.384,5.465c-1.423,0.992-2.569,1.879-3.287,2.454L84.419,67.827z"
		/>
	<g>
		<path fill="#FFFFFF" d="M22.991,1.079l44.644,18.604c0,0-2.911-1.454-17.69-7.561C43.297,9.378,22.991,1.079,22.991,1.079z"/>
	</g>
	<polygon fill="#FFFFFF" points="68.137,20.009 97.721,7.199 67.635,19.684 67.633,66.048 	"/>
	<path fill="#FFFFFF" d="M128.403,189.084c0,0,20-9.305,25.754-11.82c5.333-2.334,19.646-8.342,19.646-8.342L128.403,189.084z"/>
	<path fill="#FFFFFF" d="M154.224,177.396c2.656-1.162,11.657-4.956,11.657-4.956l-22.751,10.104
		C143.13,182.544,148.472,179.912,154.224,177.396z"/>
	<polygon fill="#FFFFFF" points="174.09,168.796 173.804,168.922 218.896,189.084 	"/>
	<path fill="#FFFFFF" d="M173.801,20.784l0.003,147.337c0,0,0.276-56.811,0.276-89.81C174.08,45.313,173.801,20.784,173.801,20.784z
		"/>
	<ellipse fill="#FFFFFF" cx="173.106" cy="78.938" rx="0.824" ry="0.839"/>
	<ellipse fill="#FFFFFF" cx="173.542" cy="78.816" rx="0.823" ry="0.839"/>
	<circle fill="#FFFFFF" cx="173.914" cy="79.141" r="1.2"/>
	<polygon fill="#FFFFFF" points="113.031,189.084 68.157,168.695 67.971,79.545 67.635,79.217 67.633,168.922 67.633,168.922 	"/>
	<path fill="#FFFFFF" d="M22.539,189.084c0,0,5.681-2.601,15.481-7.051s29.613-13.111,29.613-13.111L22.539,189.084z"/>
	<polygon fill="#FFFFFF" points="149.224,62.539 92.212,62.539 67.634,79.217 92.212,103.217 149.224,103.216 173.801,79.217 	"/>
	<polygon fill="#FFFFFF" points="67.635,19.684 67.633,79.174 92.212,62.513 92.212,22.262 112.661,1 	"/>
	<polygon fill="#FFFFFF" points="173.801,79.217 149.224,103.216 149.224,167.616 128.403,189.084 173.804,168.922 	"/>
	<polygon fill="#FFFFFF" points="197.938,42.881 197.938,22.327 204.548,15.516 189.36,13.241 173.853,19.726 173.851,42.155 	"/>
	<polygon fill="#FFFFFF" points="197.938,167.61 197.938,22.228 173.918,19.7 173.804,168.922 218.896,189.084 	"/>
	<polygon fill="#FFFFFF" points="197.938,167.61 197.938,22.228 173.918,19.7 173.804,168.922 218.896,189.084 	"/>
	<polygon fill="#FFFFFF" points="173.801,79.217 149.224,103.216 149.224,167.616 128.403,189.084 173.804,168.922 	"/>
	<polygon opacity="0.55" fill="#FFFFFF" enable-background="new    " points="173.801,79.217 149.224,103.216 149.224,167.616 
		128.403,189.084 173.804,168.922 	"/>
	<polygon fill="#FFFFFF" points="113.031,189.084 92.212,167.616 92.212,103.217 67.635,79.217 67.633,168.922 67.633,168.922 	"/>
	<polygon fill="#FFFFFF" points="113.031,189.084 92.212,167.616 92.212,103.217 67.635,79.217 67.633,168.922 67.633,168.922 	"/>
	<polygon fill="#FFFFFF" points="22.8,1 43.498,22.327 43.498,167.711 67.633,169.923 67.635,19.684 	"/>
	<polygon fill="#FFFFFF" points="22.8,1 43.498,22.327 43.498,167.711 67.633,169.923 67.635,19.684 	"/>
	<polygon fill="#FFFFFF" points="22.8,1 43.498,22.327 43.498,167.711 67.633,169.923 67.635,19.684 	"/>
	<polygon fill="#FFFFFF" points="22.8,1 43.498,22.327 43.498,167.711 67.633,169.923 67.635,19.684 	"/>
	<ellipse opacity="0.6" fill="#FFFFFF" enable-background="new    " cx="67.832" cy="79.212" rx="1.292" ry="1.45"/>
	<polygon fill="#FFFFFF" points="149.224,62.539 92.212,62.539 67.634,79.217 92.212,103.217 149.224,103.216 173.801,79.217 	"/>
	<polygon fill="#FFFFFF" points="149.224,22.262 149.224,40.445 173.801,56.462 173.801,19.688 128.774,1 	"/>
	<polygon fill="#FFFFFF" points="22.539,189.084 67.633,168.922 113.031,189.084 	"/>
	<polygon fill="#FFFFFF" points="22.8,1 43.498,22.327 43.498,167.711 67.633,169.923 67.635,19.684 	"/>
	<path fill="#FFFFFF" d="M104.398,79.204l-36.765-0.033v0.156c0,0,32.618-0.088,34.091-0.088
		C103.199,79.239,104.398,79.204,104.398,79.204z"/>
	<polygon fill="#FFFFFF" points="218.635,1 173.801,19.684 173.804,82.796 174.007,19.846 	"/>
	<g opacity="0.12">
		<polygon fill="#FFFFFF" points="128.403,189.084 218.896,189.084 197.938,167.61 197.938,22.327 218.635,1 128.774,1 
			149.224,22.262 149.224,62.539 92.212,62.539 92.212,22.262 112.661,1 22.8,1 43.498,22.327 43.498,167.61 22.539,189.084 
			113.031,189.084 92.212,167.616 92.212,103.217 149.224,103.217 149.224,167.616 		"/>
	</g>
</g>
<polygon fill="#FFFFFF" points="237.123,206.905 227.293,196.835 14.313,196.835 4.438,206.905 "/>
</svg>
