<?xml version="1.0" encoding="utf-8"?>
<!-- Generator: Adobe Illustrator 16.0.0, SVG Export Plug-In . SVG Version: 6.00 Build 0)  -->
<!DOCTYPE svg PUBLIC "-//W3C//DTD SVG 1.1//EN" "http://www.w3.org/Graphics/SVG/1.1/DTD/svg11.dtd">
<svg version="1.1" id="Layer_1" xmlns="http://www.w3.org/2000/svg" xmlns:xlink="http://www.w3.org/1999/xlink" x="0px" y="0px"
	 width="269.554px" height="107.822px" viewBox="0 0 269.554 107.822" enable-background="new 0 0 269.554 107.822"
	 xml:space="preserve">
<path id="XMLID_8_" fill="#FFFFFF" d="M268.479,31.606c0,18.895-8.968,29.774-39.372,50.831c-1.198,0.83-0.887,1.927,0.061,1.927
	h35.613c2.524,0,3.841,0.969,4.174,3.398c0.406,2.942,0.6,5.316,0.6,8.381c0,3.133-0.308,5.754-0.81,8.14
	c-0.533,2.534-1.652,3.539-4.089,3.539h-69.629c-3.074,0-4.376-1-5.514-3.641l-2.369-6.101c-0.819-2.367-1.403-4.271-1.403-6.391
	c0-3.512,1.891-5.271,4.333-7.015c36.715-26.188,49.47-35.657,49.47-49.726c0-7.285-5.43-12.41-14.832-12.41
	c-9.33,0-17.763,3.785-26.73,10.854c-2.384,1.879-4.473,1.616-5.746-0.759c-1.772-3.311-4.243-9.002-5.758-14.378
	c-0.892-3.174-0.285-5.584,1.729-6.993c2.471-1.727,8.161-4.563,11.079-5.717C207.389,2.34,217.542,0,229.102,0
	C251.18,0,268.479,11.803,268.479,31.606"/>
<path id="XMLID_11_" fill="#FFFFFF" d="M60.081,16.117c-4.352,0-7.927,0.788-9.69,2.396c-1.2,1.092-1.751,2.553-1.751,4.686v43.49
	c0,7.229-1.162,11.149-3.717,13.896c-2.246,2.415-5.775,3.722-9.659,3.722c-3.792,0-7.154-1.261-9.157-3.376
	c-2.089-2.211-3.065-5.273-3.065-9.802V42.804c0-1.239-0.464-1.79-1.833-1.79H1.957c-1.355,0-1.802,0.531-1.802,1.797v25.605
	c0,10.221,2.635,16.057,7.236,20.657c5.978,5.979,16.195,8.647,25.904,8.647c9.695,0,19.806-3.438,25.779-8.956
	c5.864,5.345,16.518,8.951,28.278,8.951c15.535,0,26.957-6.423,33.624-17.345c2.958,4.584,5.145,7.992,7.246,11.099
	c3.094,4.572,5.911,6.251,12.212,6.251c5.968,0,9.55-1.433,12.779-6.369c8.466-12.946,15.68-28.255,20.88-42.341
	c0.652-1.763,1.116-3.048,1.116-3.853c0-0.826-0.537-1.473-1.819-1.879c-1.242-0.394-4.58-1.418-6.253-1.927
	c-2.782-0.848-3.792-1.097-4.396-1.097c-1.125,0-1.737,0.63-2.128,1.93c-3.901,12.978-9.835,27.561-15.13,36.62
	c-1.734-3.309-4.939-9.064-7.915-14.252c-4.602-8.031-9.147-16.135-11.43-19.856c-2.306-3.763-3.85-4.766-6.886-4.766
	c-6.255,0-15.523,5.613-15.523,10.848c0,1.777,0.496,3.108,2.338,6.255c2.096,3.58,3.149,6.485,3.149,10.056
	c0,8.9-6.647,16.962-19.484,16.962c-6.094,0-10.796-1.729-13.861-4.874c-2.922-3.002-4.345-7.038-4.345-13.776V54.093
	c2.14,0.918,4.771,1.382,7.939,1.382H89.63c1.369,0,1.85-0.551,1.85-1.788V42.799c0-1.239-0.481-1.79-1.85-1.79H71.527v-17.81
	c0-2.133-0.556-3.594-1.753-4.686C68.008,16.905,64.371,16.117,60.081,16.117 M11.596,33.121C4.427,33.121,0,28.032,0,21.62
	c0-6.415,4.427-11.502,11.596-11.502c7.169,0,11.596,5.087,11.596,11.502C23.192,28.032,18.765,33.121,11.596,33.121"/>
</svg>
