<?xml version="1.0" encoding="utf-8"?>
<!-- Generator: Adobe Illustrator 16.0.0, SVG Export Plug-In . SVG Version: 6.00 Build 0)  -->
<!DOCTYPE svg PUBLIC "-//W3C//DTD SVG 1.1//EN" "http://www.w3.org/Graphics/SVG/1.1/DTD/svg11.dtd">
<svg version="1.1" id="HERO_L" xmlns="http://www.w3.org/2000/svg" xmlns:xlink="http://www.w3.org/1999/xlink" x="0px" y="0px"
	 width="338.855px" height="338.911px" viewBox="0 0 338.855 338.911" enable-background="new 0 0 338.855 338.911"
	 xml:space="preserve">
<path fill="#FFFFFF" d="M169.436,0C75.86,0,0,75.874,0,169.479c0,93.562,75.86,169.431,169.436,169.431
	c93.558,0,169.42-75.869,169.42-169.431C338.855,75.874,262.993,0,169.436,0z M168.264,295.977
	c-61.709,0-111.371-54.364-111.371-118.211c0-147.233,115.733-146.948,115.733-63.163
	C172.626,168.607,120.119,247.827,168.264,295.977z M209.198,293.184c-19.448,0-35.209-16.143-35.209-35.574
	c0-19.807,15.761-36.29,35.209-36.29c19.798,0,36.664,16.482,36.664,36.29C245.862,277.042,228.996,293.184,209.198,293.184z"/>
</svg>
