<?xml version="1.0" encoding="utf-8"?>
<!-- Generator: Adobe Illustrator 16.0.0, SVG Export Plug-In . SVG Version: 6.00 Build 0)  -->
<!DOCTYPE svg PUBLIC "-//W3C//DTD SVG 1.1//EN" "http://www.w3.org/Graphics/SVG/1.1/DTD/svg11.dtd">
<svg version="1.1" id="Layer_1" xmlns="http://www.w3.org/2000/svg" xmlns:xlink="http://www.w3.org/1999/xlink" x="0px" y="0px"
	 width="245.429px" height="186.271px" viewBox="0 0 245.429 186.271" enable-background="new 0 0 245.429 186.271"
	 xml:space="preserve">
<path fill="#FFFFFF" d="M0,186.271V0h91.702l16.581,18.421L124.249,0h79.423l14.737,16.603v18.649l6.958-6.823
	c3.278-2.957,6.347-4.323,8.802-4.323c6.755,0,11.259,6.37,11.259,17.742c-1.026,8.416-9.619,12.965-13.92,19.103
	c-3.069,4.324-10.237,13.421-13.306,17.742v93.021l-13.917,14.557h-80.037v-64.82l-16.783,16.832l-15.146-12.055v44.576
	l-14.74,15.467H0z M77.579,114.855v64.136l9.414-10.234v-46.622L77.579,114.855z M204.286,103.029v77.329l9.417-10.69V87.105
	L204.286,103.029z M204.286,7.505v48.671l9.619-15.239V18.193L204.286,7.505z M157.819,74.372l-1.638,3.413
	c-1.026,1.818-1.432,3.864-1.432,6.141c0,12.505,13.714,27.063,15.76,39.117c1.638,15.011,5.324,22.516,10.851,22.516
	c0.409,0,1.226-0.226,2.249-0.454c4.709,0,4.913-7.508,5.527-14.104c0.82-5.685,4.504-11.144,5.118-14.554
	c7.37-15.921,7.779-17.06,16.787-31.614c3.069-7.049,8.185-12.965,12.28-19.56c6.141-10.69,18.015-15.921,18.015-30.022
	c0-3.185-2.866-7.508-7.167-7.508c-14.532,3.185-29.475,36.166-36.64,49.13c-1.432,2.729-4.503,14.326-5.938,17.511
	c-4.707,5.003-4.295,14.557-12.483,14.557c-2.661-2.957-8.19-34.799-10.645-35.481c-1.638-1.367-3.481-2.274-5.527-2.274
	C160.891,71.187,159.251,72.323,157.819,74.372z M114.833,74.372c-3.89,4.774-10.031,8.644-15.146,12.508
	c-2.046,2.049-2.867,4.777-2.867,7.962c0,2.274,0.615,3.635,2.252,4.546c0.409,0.228,1.432,0.457,2.458,0.457
	c2.66,0,5.729-1.818,9.21-5.913c7.981-9.098,13.714-17.057,23.336-18.652c0,1.821,2.863,13.421,2.863,15.239
	c0,6.823,0.617,19.334,0.617,25.247c0,3.864-0.412,9.552-1.435,17.286c-0.614,3.638-0.82,6.141-0.82,7.277
	c0,2.729,0.614,6.367,2.049,11.373c0.817,2.731,0,10.916,4.092,10.916c0.82,0.685,1.638,0.913,2.249,0.913
	c4.301,0,6.756-7.965,6.756-18.424c-1.226-5.685-1.84-11.147-1.84-16.606v-8.641c0.614-9.777,1.023-15.918,1.023-18.875
	c0-2.277-0.203-3.867-0.409-4.552c-0.203-2.957-2.866-14.329-2.866-17.285s0.817-5.913,2.458-8.87
	c4.295-9.552,14.329-16.378,30.5-20.242c3.066-1.59,4.501-3.867,4.501-6.367c0-2.957-2.66-4.549-7.981-4.549
	c-10.442,0-19.039,12.28-29.272,12.961c-8.599,0.685-11.671-0.907-17.606,12.739C128.547,65.954,115.859,73.005,114.833,74.372z"/>
</svg>
