<?xml version="1.0" encoding="utf-8"?>
<!-- Generator: Adobe Illustrator 16.0.0, SVG Export Plug-In . SVG Version: 6.00 Build 0)  -->
<!DOCTYPE svg PUBLIC "-//W3C//DTD SVG 1.1//EN" "http://www.w3.org/Graphics/SVG/1.1/DTD/svg11.dtd">
<svg version="1.1" id="Layer_1" xmlns="http://www.w3.org/2000/svg" xmlns:xlink="http://www.w3.org/1999/xlink" x="0px" y="0px"
	 width="175.748px" height="51.634px" viewBox="0 0 175.748 51.634" enable-background="new 0 0 175.748 51.634"
	 xml:space="preserve">
<path fill-rule="evenodd" clip-rule="evenodd" fill="#FFFFFF" d="M0,0h36.036v51.634H0V0L0,0z M5.194,46.436h25.63V5.2H5.194V46.436
	L5.194,46.436z"/>
<path fill-rule="evenodd" clip-rule="evenodd" fill="#FFFFFF" d="M59.973,23.166h-2.229c-2.928-4.136-5.832-8.246-8.732-12.891
	H48.99v12.891h-2.464V5.192h2.231c2.928,4.107,5.828,8.188,8.701,12.809h0.052V5.192h2.463V23.166L59.973,23.166z"/>
<path fill-rule="evenodd" clip-rule="evenodd" fill="#FFFFFF" d="M65.831,16.052c0.715-2.363,1.435-4.545,2.078-7.319h0.052
	c0.718,2.774,1.361,4.957,2.028,7.319H65.831L65.831,16.052z M67.008,5.192l-6.21,17.974h2.67l1.562-4.905h5.422l1.411,4.905h3.442
	L69.578,5.192H67.008L67.008,5.192z"/>
<polygon fill-rule="evenodd" clip-rule="evenodd" fill="#FFFFFF" points="78.205,23.166 78.205,7.603 73.478,7.603 73.478,5.192 
	86.007,5.192 86.007,7.603 81.285,7.603 81.285,23.166 78.205,23.166 "/>
<polygon fill-rule="evenodd" clip-rule="evenodd" fill="#FFFFFF" points="87.007,5.192 90.066,5.192 90.066,23.166 87.007,23.166 
	87.007,5.192 "/>
<path fill-rule="evenodd" clip-rule="evenodd" fill="#FFFFFF" d="M99.566,20.903c-3.213,0-4.342-3.543-4.342-6.984
	c0-3.311,1.283-6.47,4.342-6.47c3.055,0,4.334,3.159,4.334,6.47C103.9,17.36,102.773,20.903,99.566,20.903L99.566,20.903z
	 M99.566,23.47c4.697,0,7.623-4.183,7.623-9.552c0-5.031-3.23-9.036-7.623-9.036c-4.389,0-7.633,4.005-7.633,9.036
	C91.934,19.288,94.865,23.47,99.566,23.47L99.566,23.47z"/>
<path fill-rule="evenodd" clip-rule="evenodd" fill="#FFFFFF" d="M122.518,23.166h-2.232c-2.93-4.136-5.832-8.246-8.73-12.891
	h-0.025v12.891h-2.461V5.192h2.23c2.926,4.107,5.828,8.188,8.697,12.809h0.055V5.192h2.467V23.166L122.518,23.166z"/>
<path fill-rule="evenodd" clip-rule="evenodd" fill="#FFFFFF" d="M128.371,16.052c0.721-2.363,1.436-4.545,2.082-7.319h0.051
	c0.719,2.774,1.359,4.957,2.025,7.319H128.371L128.371,16.052z M129.555,5.192l-6.213,17.974h2.672l1.563-4.905h5.418l1.414,4.905
	h3.439l-5.727-17.974H129.555L129.555,5.192z"/>
<polygon fill-rule="evenodd" clip-rule="evenodd" fill="#FFFFFF" points="138.742,5.192 141.803,5.192 141.803,20.751 
	147.885,20.751 147.885,23.166 138.742,23.166 138.742,5.192 "/>
<path fill-rule="evenodd" clip-rule="evenodd" fill="#FFFFFF" d="M58.08,38.2v7.419c-1.645,0.643-3.366,1.104-5.107,1.104
	c-5.291,0-8.628-4.109-8.628-9.398c0-4.906,3.337-9.192,8.729-9.192c1.666,0,3.336,0.62,4.363,1.388l-1.001,2.131
	c-0.82-0.509-2.107-0.946-3.286-0.946c-3.284,0-5.52,2.593-5.52,6.677c0,4.259,2.569,6.773,5.214,6.773
	c0.818,0,1.515-0.098,2.16-0.435V38.2H58.08L58.08,38.2z"/>
<polygon fill-rule="evenodd" clip-rule="evenodd" fill="#FFFFFF" points="69.099,30.859 63.958,30.859 63.958,35.786 68.99,35.786 
	68.99,38.2 63.958,38.2 63.958,43.999 70.018,43.999 70.018,46.416 60.875,46.416 60.875,28.441 69.099,28.441 69.099,30.859 "/>
<path fill-rule="evenodd" clip-rule="evenodd" fill="#FFFFFF" d="M78.598,44.154c-3.213,0-4.344-3.54-4.344-6.983
	c0-3.309,1.284-6.467,4.344-6.467c3.053,0,4.334,3.158,4.334,6.467C82.932,40.614,81.8,44.154,78.598,44.154L78.598,44.154z
	 M78.598,46.722c4.696,0,7.621-4.185,7.621-9.552c0-5.031-3.233-9.039-7.621-9.039c-4.396,0-7.628,4.008-7.628,9.039
	C70.97,42.538,73.892,46.722,78.598,46.722L78.598,46.722z"/>
<path fill-rule="evenodd" clip-rule="evenodd" fill="#FFFFFF" d="M101.006,38.2v7.419c-1.646,0.643-3.361,1.104-5.109,1.104
	c-5.287,0-8.627-4.109-8.627-9.398c0-4.906,3.34-9.192,8.732-9.192c1.67,0,3.336,0.62,4.361,1.388l-1.004,2.131
	c-0.82-0.509-2.096-0.946-3.279-0.946c-3.291,0-5.525,2.593-5.525,6.677c0,4.259,2.57,6.773,5.215,6.773
	c0.824,0,1.514-0.098,2.158-0.435V38.2H101.006L101.006,38.2z"/>
<path fill-rule="evenodd" clip-rule="evenodd" fill="#FFFFFF" d="M106.918,30.859h1.357c1.818,0,2.848,1.048,2.848,2.899
	c0,2.411-1.461,3.488-2.926,3.565c-0.309,0.031-1.029,0.057-1.279,0.079V30.859L106.918,30.859z M114.721,46.416l-3.627-7.443
	c1.977-1.05,3.113-3.187,3.113-5.344c0-3.495-2.135-5.188-5.578-5.188h-4.799v17.975h3.088v-6.778h1.385l2.896,6.778H114.721
	L114.721,46.416z"/>
<path fill-rule="evenodd" clip-rule="evenodd" fill="#FFFFFF" d="M119.803,39.303c0.717-2.366,1.434-4.546,2.08-7.319h0.051
	c0.719,2.773,1.359,4.953,2.027,7.319H119.803L119.803,39.303z M120.982,28.441l-6.215,17.975h2.67l1.568-4.906h5.42l1.404,4.906
	h3.447l-5.729-17.975H120.982L120.982,28.441z"/>
<path fill-rule="evenodd" clip-rule="evenodd" fill="#FFFFFF" d="M135.051,28.441h-4.801v17.975h3.082v-6.778h1.383
	c3.674,0,5.91-2.979,5.91-6.009C140.625,30.133,138.492,28.441,135.051,28.441L135.051,28.441z M134.619,37.324
	c-0.32,0.029-1.074,0.053-1.287,0.074v-6.539h1.383c1.797,0,2.828,1.048,2.828,2.899C137.543,36.169,136.084,37.247,134.619,37.324
	L134.619,37.324z"/>
<polygon fill-rule="evenodd" clip-rule="evenodd" fill="#FFFFFF" points="154.898,46.416 151.818,46.416 151.818,37.766 
	145.42,37.766 145.42,46.416 142.373,46.416 142.373,28.441 145.42,28.441 145.42,35.348 151.818,35.348 151.818,28.492 
	154.898,28.492 154.898,46.416 "/>
<polygon fill-rule="evenodd" clip-rule="evenodd" fill="#FFFFFF" points="157.848,28.441 160.91,28.441 160.91,46.416 
	157.848,46.416 157.848,28.441 "/>
<path fill-rule="evenodd" clip-rule="evenodd" fill="#FFFFFF" d="M174.77,31.705c-0.746-0.464-1.973-1.001-3.16-1.001
	c-3.137,0-5.414,2.593-5.414,6.677c0,4.259,2.514,6.773,5.494,6.773c1.182,0,2.283-0.387,3.08-0.9l0.85,2.236
	c-0.93,0.641-2.568,1.232-4.055,1.232c-5.291,0-8.631-4.109-8.631-9.398c0-4.906,3.311-9.192,8.676-9.192
	c1.596,0,3.08,0.672,4.139,1.388L174.77,31.705L174.77,31.705z"/>
</svg>
