<?xml version="1.0" encoding="utf-8"?>
<!-- Generator: Adobe Illustrator 16.0.0, SVG Export Plug-In . SVG Version: 6.00 Build 0)  -->
<!DOCTYPE svg PUBLIC "-//W3C//DTD SVG 1.1//EN" "http://www.w3.org/Graphics/SVG/1.1/DTD/svg11.dtd">
<svg version="1.1" id="Layer_1" xmlns="http://www.w3.org/2000/svg" xmlns:xlink="http://www.w3.org/1999/xlink" x="0px" y="0px"
	 width="192.756px" height="192.756px" viewBox="0 0 192.756 192.756" enable-background="new 0 0 192.756 192.756"
	 xml:space="preserve">
<path fill-rule="evenodd" clip-rule="evenodd" fill="#FFFFFF" d="M22.527,109.93c-10.876,0-19.693-8.808-19.693-19.671
	s8.817-19.67,19.693-19.67c3.972,0,7.67,1.175,10.764,3.195l0,0L86.94,109.93H22.527L22.527,109.93L22.527,109.93z"/>
<path fill-rule="evenodd" clip-rule="evenodd" fill="#FFFFFF" d="M27.97,65.666c-9.111-5.914-11.701-18.09-5.784-27.197
	c5.917-9.106,18.099-11.695,27.21-5.781c3.327,2.16,5.785,5.155,7.276,8.531l0,0l27.417,62.497L27.97,65.666L27.97,65.666
	L27.97,65.666z"/>
<path fill-rule="evenodd" clip-rule="evenodd" fill="#FFFFFF" d="M170.183,109.949c10.901,0,19.738-8.815,19.738-19.69
	c0-10.874-8.837-19.69-19.738-19.69c-3.981,0-7.688,1.176-10.788,3.199l0,0l-53.773,36.182H170.183L170.183,109.949L170.183,109.949
	z"/>
<path fill-rule="evenodd" clip-rule="evenodd" fill="#FFFFFF" d="M164.741,65.665c9.131-5.919,11.726-18.108,5.796-27.223
	c-5.93-9.116-18.14-11.706-27.271-5.787c-3.334,2.162-5.798,5.16-7.292,8.54l0,0l-27.478,62.556L164.741,65.665L164.741,65.665
	L164.741,65.665z"/>
<path fill-rule="evenodd" clip-rule="evenodd" fill="#FFFFFF" d="M104.179,28.656c-1.404,1.089-5.258,1.681-4.424,8.543l0,0
	l8.326,58.217l27.762-63.46l0,0c4.438-9.938-0.045-21.581-10.012-26.005c-9.966-4.424-21.644,0.045-26.08,9.982
	c-1.489,3.334-1.974,6.86-1.584,10.242l0,0l5.231-0.009l0,0C106.364,26.313,107.925,27.1,104.179,28.656L104.179,28.656
	L104.179,28.656L104.179,28.656z"/>
<path fill-rule="evenodd" clip-rule="evenodd" fill="#FFFFFF" d="M56.853,31.972c-4.428-9.929,0.045-21.562,9.99-25.982
	c9.946-4.421,21.599,0.044,26.027,9.973c1.618,3.626,2.047,7.48,1.457,11.126l0,0l-9.77,68.287L56.853,31.972L56.853,31.972
	L56.853,31.972z"/>
<path fill-rule="evenodd" clip-rule="evenodd" fill="#FFFFFF" d="M177.396,185.896c-3.189,1.299-7.931,2.613-12.324,2.613
	c-20.085,0-36.367-15.418-36.367-34.438c0-19.019,16.282-34.437,36.367-34.437c4.323,0,9.063,1.053,12.324,2.548l0,0v13.167l0,0
	c-3.54-2.326-7.769-3.681-12.324-3.681c-12.399,0-22.451,10.03-22.451,22.402c0,12.373,10.052,22.403,22.451,22.403
	c4.53,0,8.796-1.339,12.324-3.642l0,0V185.896L177.396,185.896L177.396,185.896z"/>
<polygon fill-rule="evenodd" clip-rule="evenodd" fill="#FFFFFF" stroke="#FFFFFF" stroke-miterlimit="10" points="56.562,121.883 
	69.913,121.883 69.913,187.684 28.813,150.148 28.813,186.244 15.461,186.244 15.461,120.46 56.562,157.995 56.562,121.883 
	56.562,121.883 "/>
<path fill-rule="evenodd" clip-rule="evenodd" fill="#FFFFFF" d="M114.651,151.85c4.076-3.02,7.627-5.902,7.593-13.503
	c-0.046-10.004-8.139-16.526-18.177-16.526l0,0H77.573v64.486h29.716l0,0c10.526,0,18.533-7.985,18.533-18.476
	S117.15,152.762,114.651,151.85L114.651,151.85L114.651,151.85L114.651,151.85z M90.996,131.57l9.925,0.001l0,0
	c4.646,0,8.411,3.754,8.411,8.385c0,4.63-3.766,8.385-8.411,8.385l0,0h-9.925V131.57L90.996,131.57L90.996,131.57z M103.079,176.626
	H90.998v-18.651l12.082-0.055l0,0c5.18,0,9.379,4.188,9.379,9.354C112.458,172.438,108.259,176.626,103.079,176.626L103.079,176.626
	L103.079,176.626L103.079,176.626z"/>
</svg>
