<?xml version="1.0" encoding="utf-8"?>
<!-- Generator: Adobe Illustrator 16.0.0, SVG Export Plug-In . SVG Version: 6.00 Build 0)  -->
<!DOCTYPE svg PUBLIC "-//W3C//DTD SVG 1.1//EN" "http://www.w3.org/Graphics/SVG/1.1/DTD/svg11.dtd">
<svg version="1.1" id="Layer_1" xmlns="http://www.w3.org/2000/svg" xmlns:xlink="http://www.w3.org/1999/xlink" x="0px" y="0px"
	 width="411.12px" height="131.76px" viewBox="0 0 411.12 131.76" enable-background="new 0 0 411.12 131.76" xml:space="preserve">
<g>
	<path fill="#FFFFFF" d="M131.414,109.5c-1.045,4.785-6.361,14.52-23.41,14.523c-13.858,0-23.318-7.203-23.32-20.787
		c-0.002-11.492,7.752-20.568,23.865-20.572c12.318,0,20.113,5.992,22.424,12.098l-10.764,1.32c-2.31-3.518-5.666-6.268-11.66-6.268
		c-10.339,0.002-13.801,7.756-13.801,13.531c0.001,7.479,5.665,13.525,14.079,13.525c7.919,0,10.944-4.512,12.265-7.371H131.414z"/>
	<path fill="#FFFFFF" d="M167.542,122.694l-0.002-16.662l-23.429,0.004l0.003,16.66l-9.734,0.004l-0.004-38.828l9.732-0.002
		l0.003,14.959l23.428-0.002l-0.002-14.959l9.733-0.002l0.005,38.828H167.542z"/>
	<path fill="#FFFFFF" d="M217.253,122.688l-3.301-7.316l-19.908,0.004l-3.299,7.314l-10.613,0.004l18.748-38.83l10.503-0.002
		l18.758,38.822L217.253,122.688z M204.05,93.321l-6.873,15.182l13.64-0.004L204.05,93.321z"/>
	<path fill="#FFFFFF" d="M264.542,122.678l-23.98-27.217l0.004,27.223h-9.24l-0.006-38.826h9.732l23.818,27.107l-0.006-27.111h9.24
		l0.006,38.824H264.542z"/>
	<path fill="#FFFFFF" d="M313.286,122.672l-23.98-27.217l0.004,27.221l-9.24,0.002l-0.006-38.826h9.732l23.818,27.107l-0.006-27.111
		l9.24-0.002l0.006,38.826H313.286z"/>
	<path fill="#FFFFFF" d="M328.011,122.67l-0.006-38.824l36.186-0.006l0.002,6.984l-26.453,0.002l0.002,8.746l25.572-0.004v6.93
		l-25.57,0.002v9.24l27.551-0.002v6.928L328.011,122.67z"/>
	<path fill="#FFFFFF" d="M370.028,122.665l-0.006-38.824l9.736-0.004l0.006,31.678l21.557-0.004v7.15L370.028,122.665z"/>
</g>
<g>
	<path fill="#FFFFFF" d="M151.582,37.605c1.6-3.553,1.784-6.67,1.784-8.707c-0.003-9.066-5.109-16.213-13.313-18.645
		c-2.511-0.779-4.954-1.201-10.667-1.201L85.388,9.059l0.009,64.639l18.091-0.004l-0.003-24.939L119.2,48.75l16.515,24.938
		l21.651-0.002l-19.196-26.332C143.627,46.141,148.802,43.864,151.582,37.605z M103.482,22.582l23.625-0.002
		c5.467-0.004,7.902,2,7.904,6.498c0,1.496,0,6.059-7.289,6.059l-24.24,0.006V22.582z"/>
	<polygon fill="#FFFFFF" points="178.587,47.866 217.952,47.86 217.95,34.158 178.584,34.164 178.584,22.834 220.825,22.828 
		220.823,9.041 160.401,9.051 160.41,73.686 222.589,73.676 222.589,59.977 178.588,59.983 	"/>
	<polygon fill="#FFFFFF" points="244.774,47.858 284.138,47.852 284.138,34.148 244.772,34.154 244.771,22.826 287.013,22.82 
		287.013,9.033 226.589,9.041 226.597,73.676 288.776,73.668 288.776,59.969 244.774,59.975 	"/>
	<polygon fill="#FFFFFF" points="311.044,9.029 292.938,9.033 292.948,73.668 338.483,73.663 338.483,59.612 311.05,59.614 	"/>
	<polygon fill="#FFFFFF" points="401.952,9.018 342.009,9.023 342.011,22.639 378.794,22.633 342.04,60.44 342.04,73.663 
		401.962,73.653 401.962,59.69 365.126,59.696 401.956,21.889 	"/>
</g>
<path fill="#FFFFFF" d="M75.928,24.332c0,8.779-7.114,15.898-15.896,15.898c-8.779,0.004-15.897-7.113-15.897-15.896
	c-0.002-8.777,7.114-15.896,15.893-15.898C68.809,8.436,75.927,15.551,75.928,24.332"/>
<g>
	<path fill="#FFFFFF" d="M40.954,24.334c0.001,8.783-7.115,15.9-15.896,15.902c-8.778,0-15.898-7.115-15.898-15.896
		C9.158,15.561,16.274,8.441,25.052,8.441C33.834,8.438,40.952,15.557,40.954,24.334z"/>
	<circle fill="#FFFFFF" cx="25.061" cy="58.519" r="15.897"/>
	<path fill="#FFFFFF" d="M75.932,58.512c0.002,8.777-7.114,15.9-15.896,15.9c-8.779,0.002-15.897-7.117-15.898-15.896
		c-0.002-8.781,7.116-15.9,15.894-15.9C68.815,42.614,75.931,49.733,75.932,58.512"/>
</g>
</svg>
