<?xml version="1.0" encoding="utf-8"?>
<!-- Generator: Adobe Illustrator 16.0.0, SVG Export Plug-In . SVG Version: 6.00 Build 0)  -->
<!DOCTYPE svg PUBLIC "-//W3C//DTD SVG 1.1//EN" "http://www.w3.org/Graphics/SVG/1.1/DTD/svg11.dtd">
<svg version="1.1" id="Layer_1" xmlns="http://www.w3.org/2000/svg" xmlns:xlink="http://www.w3.org/1999/xlink" x="0px" y="0px"
	 width="67.03px" height="67.03px" viewBox="0 0 67.03 67.03" enable-background="new 0 0 67.03 67.03" xml:space="preserve">
<path fill-rule="evenodd" clip-rule="evenodd" fill="#FFFFFF" d="M47.518,33.975c0-13.544,4.82-22.038,10.789-22.957
	C52.338,3.903,42.468,0,33.515,0C23.645,0,14.692,4.132,8.494,11.019c5.968,1.148,7.805,6.198,7.805,13.773H9.183
	c0-4.591-0.918-6.887-3.673-6.887c-1.148,0-2.066,0.689-2.525,1.607c0,0.229-0.229,0.459-0.229,0.459
	c-0.229,0.688-0.459,1.377-0.459,2.065c0,9.183,15.38,8.723,15.38,23.186c0,5.508-4.361,10.789-9.182,10.789
	c6.428,6.885,14.921,11.018,25.021,11.018c9.641,0,18.364-4.133,24.562-10.789C52.338,54.864,47.518,46.829,47.518,33.975
	L47.518,33.975z M44.304,56.012H36.5V36.958h-8.264v19.055H20.66V11.937h7.575v17.905H36.5V11.937h7.805V56.012L44.304,56.012z"/>
<path fill-rule="evenodd" clip-rule="evenodd" fill="#FFFFFF" d="M6.657,49.125c2.066,0,3.673-2.066,3.673-4.822
	c0-5.508-5.05-6.656-10.33-11.477v1.838C0.192,43.303,3.223,49.125,6.657,49.125L6.657,49.125z"/>
<path fill-rule="evenodd" clip-rule="evenodd" fill="#FFFFFF" d="M55.093,33.286c0-7.576,2.066-14.921,5.968-14.921
	c4.821,0,5.968,11.478,5.968,15.15c0,7.807-2.525,15.152-5.968,15.152C57.159,48.667,55.093,41.09,55.093,33.286L55.093,33.286z"/>
</svg>
