<?xml version="1.0" encoding="utf-8"?>
<!-- Generator: Adobe Illustrator 16.0.0, SVG Export Plug-In . SVG Version: 6.00 Build 0)  -->
<!DOCTYPE svg PUBLIC "-//W3C//DTD SVG 1.1//EN" "http://www.w3.org/Graphics/SVG/1.1/DTD/svg11.dtd">
<svg version="1.1" id="Layer_1" xmlns="http://www.w3.org/2000/svg" xmlns:xlink="http://www.w3.org/1999/xlink" x="0px" y="0px"
	 width="667px" height="395px" viewBox="0 0 667 395" enable-background="new 0 0 667 395" xml:space="preserve">
<polygon fill="#FFFFFF" points="253.3,255.8 251.4,255.8 241.8,316.6 262.9,316.6 "/>
<path fill="#FFFFFF" d="M0.1,394.7H667v-189H0.1V394.7z M504.9,230.1H571.8V248.9h-47v34h38.9v18.8h-38.9V347.1H573V365.9h-68V230.1
	H504.9z M354.7,328.3h20.7c1.1,13.2,6.5,20.8,14.899,20.8c9,0,14.601-5.199,14.601-13.5c0-12.8-10.2-21.3-21-30.3
	c-12.7-10.5-27-22.5-27-43.6c0-21.2,13-33.4,35.699-33.4c17.801,0,29.7,12.2,31.9,32.5l0.1,1.4l-20.899,0.1
	c-1.5-14.1-10.601-15.2-13.4-15.2c-8.1,0-12.7,5.301-12.7,14.4c0,10.8,9.801,19.1,20.2,27.9c13.101,11.1,27.8,23.699,27.8,44.1
	c0,21.2-14,34.4-36.399,34.4c-22.7,0-33.7-18.7-34.5-37.2V328.3z M238.4,230.1h27.8l25,135.801h-21l-4.2-30.5h-27.5l-4.2,30.5h-21
	L238.4,230.1z M82.6,262.6c0-25.3,18.2-34.3,35.3-34.3c16.5,0,34.2,9.7,34.2,36.8v3.2h-21.8v-3.8c0-12.9-6.4-17.5-12.3-17.5
	c-9.6,0-13.5,4.7-13.5,16.1v69.7c0,11.5,3.9,16.101,13.5,16.101c8.5,0,12.3-4.601,12.3-14.801v-7H152v6.2
	c0,25.3-17.6,34.3-34.2,34.3c-17.1,0-35.3-9-35.3-34.3v-70.7H82.6z"/>
<path fill="#FFFFFF" d="M0.1,189.4H667V0.4H0.1V189.4z M116.3,162.9c-22.7,0-33.7-18.7-34.5-37.2v-2.3h20.7
	c1.1,13.199,6.5,20.8,14.9,20.8c9,0,14.6-5.2,14.6-13.5c0-12.8-10.2-21.3-21-30.3C98.3,89.9,84,77.9,84,56.8
	C84,35.6,97,23.4,119.7,23.4c17.8,0,29.7,12.199,31.9,32.5l0.1,1.399L130.8,57.4c-1.5-14.101-10.6-15.2-13.4-15.2
	c-8.1,0-12.7,5.3-12.7,14.399c0,10.801,9.8,19.101,20.2,27.9c13.1,11.1,27.8,23.7,27.8,44.1C152.8,149.7,138.8,162.9,116.3,162.9
	 M286.1,161h-21.8v-61h-26.9v61h-21.8V25.2h21.8v56h26.9v-56h21.8V161z M425.4,128.5c0,25.3-18.2,34.3-35.301,34.3
	c-17.1,0-35.3-9-35.3-34.3V57.7c0-25.3,18.2-34.3,35.3-34.3c17.101,0,35.301,9,35.301,34.3V128.5z M572,161.5h-19.2l-17.1-90.6
	L535.6,70.6h-1l-16,90.9H499.4l-26-136.8H494.8l14.5,87.6h1l15.4-87.6h18.8l15.9,87.3l0.1,0.3h1l13.1-87.6H596L572,161.5z"/>
<path fill="#FFFFFF" d="M390.1,42.1c-9.6,0-13.5,4.7-13.5,16.101V128c0,11.5,3.9,16.1,13.5,16.1c9.601,0,13.5-4.699,13.5-16.1V58.2
	C403.6,46.8,399.7,42.1,390.1,42.1"/>
<rect fill="none" width="667" height="395"/>
</svg>
