<?xml version="1.0" encoding="utf-8"?>
<!-- Generator: Adobe Illustrator 16.0.0, SVG Export Plug-In . SVG Version: 6.00 Build 0)  -->
<!DOCTYPE svg PUBLIC "-//W3C//DTD SVG 1.1//EN" "http://www.w3.org/Graphics/SVG/1.1/DTD/svg11.dtd">
<svg version="1.1" id="Layer_1" xmlns="http://www.w3.org/2000/svg" xmlns:xlink="http://www.w3.org/1999/xlink" x="0px" y="0px"
	 width="160.241px" height="96.027px" viewBox="0 0 160.241 96.027" enable-background="new 0 0 160.241 96.027"
	 xml:space="preserve">
<path fill-rule="evenodd" clip-rule="evenodd" fill="#FFFFFF" d="M69.7,2.152C69.7,0.634,68.697,0,67.437,0h-7.909
	c-3.148,0-5.386,1.568-5.386,5.419v67.862c0,1.509,1,2.149,2.262,2.149h7.903c3.157,0,5.393-1.572,5.393-5.426V2.152L69.7,2.152z"/>
<path fill-rule="evenodd" clip-rule="evenodd" fill="#FFFFFF" d="M159.609,26.965c0.307-0.658,0.632-1.28,0.632-1.918
	c0-1.282-0.93-1.91-2.213-1.91h-9.613c-1.921,0-2.792,0.68-3.491,2.244l-13.553,30.084l-18.905-29.781
	c-1.166-1.844-2.402-2.547-5.204-2.547H95.836c-2.377,0-3.643,0.628-5.062,2.143L70.656,46.897l18.049,26.305
	c1.045,1.515,1.916,2.229,3.489,2.229h10.753c1.606,0,2.548-0.641,2.548-1.994c0-0.832-0.403-1.369-0.941-2.138L88.705,47.833
	l12.029-12.961l23.763,35.133l-10.505,22.206c-0.288,0.652-0.618,1.285-0.618,1.913c0,1.281,0.935,1.903,2.219,1.903h9.533
	c1.94,0,2.775-0.671,3.494-2.231L159.609,26.965L159.609,26.965z"/>
<path fill-rule="evenodd" clip-rule="evenodd" fill="#FFFFFF" d="M19.355,41.217c-3.154-0.705-4.132-1.591-4.132-3.201
	c0-1.232,0.978-2.213,3.828-2.213H42.12c3.843,0,5.395-2.243,5.395-5.389v-5.009c0-1.263-0.625-2.268-2.131-2.268H18.356
	C6.319,23.138,0,30.108,0,38.998c0,7.9,4.864,12.712,14.574,14.876l15.505,3.468c3.151,0.708,4.135,1.597,4.135,3.203
	c0,1.235-0.983,2.216-3.828,2.216H6.343c-3.853,0-5.407,2.234-5.407,5.38v5.02c0,1.26,0.628,2.271,2.14,2.271H29.45
	c14.239,0,19.986-6.979,19.986-15.235c0-8.537-4.927-13.34-14.576-15.505L19.355,41.217L19.355,41.217z"/>
</svg>
