<?xml version="1.0" encoding="utf-8"?>
<!-- Generator: Adobe Illustrator 16.0.0, SVG Export Plug-In . SVG Version: 6.00 Build 0)  -->
<!DOCTYPE svg PUBLIC "-//W3C//DTD SVG 1.1//EN" "http://www.w3.org/Graphics/SVG/1.1/DTD/svg11.dtd">
<svg version="1.1" id="Layer_1" xmlns="http://www.w3.org/2000/svg" xmlns:xlink="http://www.w3.org/1999/xlink" x="0px" y="0px"
	 width="708.349px" height="299.144px" viewBox="0 0 708.349 299.144" enable-background="new 0 0 708.349 299.144"
	 xml:space="preserve">
<polygon fill-rule="evenodd" clip-rule="evenodd" fill="#1C1A17" points="472.793,117.481 460.547,130.462 460.104,195.09 
	472.793,182.715 472.793,117.481 "/>
<polygon fill-rule="evenodd" clip-rule="evenodd" fill="#FFFFFF" points="472.793,224.94 413.942,224.94 413.942,61.693 472.793,0 
	472.793,117.481 512.745,75.13 583.091,75.13 527.343,129.506 586.825,224.866 521.019,225.023 488.993,166.912 472.793,182.715 
	472.793,224.94 "/>
<polygon fill-rule="evenodd" clip-rule="evenodd" fill="#FFFFFF" points="402.271,73.987 343.778,135.242 343.778,224.92 
	402.271,224.92 402.271,73.987 "/>
<line fill="none" stroke="#000000" stroke-width="0.18" stroke-linecap="round" stroke-linejoin="round" stroke-miterlimit="10" x1="259.079" y1="223.493" x2="343.917" y2="134.944"/>
<path fill-rule="evenodd" clip-rule="evenodd" fill="#FFFFFF" d="M373.375,14.898c16.152,0,29.267,13.114,29.267,29.267
	c0,16.152-13.114,29.266-29.267,29.266c-16.153,0-29.268-13.114-29.268-29.266C344.107,28.012,357.222,14.898,373.375,14.898
	L373.375,14.898z"/>
<path fill-rule="evenodd" clip-rule="evenodd" fill="#FFFFFF" d="M183.875,47.978l-36.171,35.07
	c-16.47-15.646-35.972-21.033-58.667-19.529c-17.553,1.164-26.563,22.025-2.994,26.189c9.866,1.743,32.812,5.681,47.597,9.384
	c37.333,9.35,53.856,29.89,52.981,58.234c-1.262,40.887-25.725,62.864-63.902,69.727c-42.008,7.551-92.588,0.68-122.63-32.733
	l40.677-40.186c13.046,19.315,36.047,31.288,65.133,25.785c27.588-5.22,25.787-23.468,5.41-28.801
	c-20.089-2.996-35.371-6.833-53.316-11.744C-19.861,120.459,2.155,21.836,75.65,15.796
	C120.875,12.079,157.393,22.319,183.875,47.978L183.875,47.978z"/>
<path fill-rule="evenodd" clip-rule="evenodd" fill="#FFFFFF" d="M242.715,86.441c10.063-9.651,23.143-15.3,38.547-15.223
	c57.699,0.29,62.513,63.931,62.513,63.931l-84.764,88.511c0,0-7.721-1.039-16.286-8.536l0.003,25.358l-56.225,58.661V75.709h56.211
	L242.715,86.441L242.715,86.441z M242.721,156.862c1.867,16.316,10.286,28.902,22.402,28.938
	c15.214,0.043,23.111-15.882,23.552-35.434c0.419-18.541-7.174-35.434-23.552-35.434c-12.307,0-20.561,11.856-22.404,27.967
	L242.721,156.862L242.721,156.862z"/>
<path fill-rule="evenodd" clip-rule="evenodd" fill="#FFFFFF" d="M706.539,172.828c-9.779,35.004-35.809,54.062-76.089,52.913
	c-44.269-1.264-76.167-34.806-76.167-77.675c0-42.87,33.038-76.414,76.167-76.776c47.734-0.4,78.296,33.675,77.803,86.176
	c-0.007,0.63-0.05,1.255-0.082,1.878l-98.161-0.882c-1.425,28.245,33.313,39.083,47.068,14.563L706.539,172.828L706.539,172.828z
	 M610.359,128.786h42.866C650.762,98.833,611.446,102.985,610.359,128.786L610.359,128.786z"/>
</svg>
