<?xml version="1.0" encoding="utf-8"?>
<!-- Generator: Adobe Illustrator 16.0.0, SVG Export Plug-In . SVG Version: 6.00 Build 0)  -->
<!DOCTYPE svg PUBLIC "-//W3C//DTD SVG 1.1//EN" "http://www.w3.org/Graphics/SVG/1.1/DTD/svg11.dtd">
<svg version="1.1" id="Layer_1" xmlns="http://www.w3.org/2000/svg" xmlns:xlink="http://www.w3.org/1999/xlink" x="0px" y="0px"
	 width="1000.93px" height="247.196px" viewBox="0 0 1000.93 247.196" enable-background="new 0 0 1000.93 247.196"
	 xml:space="preserve">
<path fill="#FFFFFF" d="M431.166,161.985l29.602-58.617l29.562,58.617 M390.243,243.133l18.783-37.291h103.448l18.823,37.291h50.728
	L460.767,2.968L340.176,243.133H390.243z"/>
<polyline fill="#FFFFFF" points="382.938,4.062 192.68,4.062 192.68,47.879 263.52,47.879 263.52,243.133 312.138,243.133 
	312.138,47.879 382.938,47.879 "/>
<path fill="#FFFFFF" d="M677.228,109.149h-35.337v-61.27h35.337c26.088,0,40.419,10.543,40.419,30.5
	C717.646,98.177,702.536,109.149,677.228,109.149 M766.62,77.13c0-21.012-7.614-39.094-22.065-52.251
	c-14.915-13.631-36.081-20.816-61.23-20.816h-90.016v239.071h48.583v-87.159h34.598l50.258,87.159h55.688l-56.818-98.916
	C761.349,127.463,766.62,94.859,766.62,77.13"/>
<polyline fill="#FFFFFF" points="1000.929,4.062 803.407,4.062 803.407,47.879 916.344,47.879 793.683,243.133 998.427,243.133 
	998.427,199.319 878.269,199.319 "/>
<path fill="#FFFFFF" d="M107,101.574c-39.245-9.294-53.146-15.62-53.146-33.703c0-15.071,13.94-24.679,34.678-24.679
	c31.63,0,59.982,21.871,67.596,28.352l20.308-41.159C151.247,10.193,122.351,0,89.157,0C40.184,0,5.976,29.33,5.976,71.194
	c0,45.726,29.484,61.465,80.406,73.767c42.644,9.839,50.104,18.314,50.104,32.41c0,16.674-14.92,26.632-37.96,26.632
	c-28.467,0-51.822-10.894-78.61-35.846L0,210.879c27.767,23.82,61.585,36.317,97.512,36.317c52.797,0,86.89-28.428,86.89-73.848
	C184.401,135.937,161.985,114.97,107,101.574"/>
</svg>
