<?xml version="1.0" encoding="utf-8"?>
<!-- Generator: Adobe Illustrator 16.0.0, SVG Export Plug-In . SVG Version: 6.00 Build 0)  -->
<!DOCTYPE svg PUBLIC "-//W3C//DTD SVG 1.1//EN" "http://www.w3.org/Graphics/SVG/1.1/DTD/svg11.dtd">
<svg version="1.1" id="Layer_1" xmlns="http://www.w3.org/2000/svg" xmlns:xlink="http://www.w3.org/1999/xlink" x="0px" y="0px"
	 width="278.771px" height="150.256px" viewBox="0 0 278.771 150.256" enable-background="new 0 0 278.771 150.256"
	 xml:space="preserve">
<path id="XMLID_5_" fill="#FFFFFF" d="M203.314,40.915h-23.96v-2.63c0-1.581,0.064-3.3,0.354-4.843
	c0.19-1.15,0.506-2.149,0.873-2.908c0.594-1.151,1.024-1.732,2.327-2.529c1.315-0.759,3.995-1.783,9.331-1.795h16.336V0h-16.336
	c-7.763-0.01-14.578,1.365-20.369,4.198c-4.324,2.111-7.965,5.044-10.671,8.319c-4.084,4.931-6.044,10.317-7.018,14.844
	c-0.973,4.539-1.037,8.446-1.037,10.924v70.854h26.223l-0.014-43.43h23.959V40.915"/>
<path id="XMLID_6_" fill="#FFFFFF" d="M243.495,150.256c23.062-0.019,35.237-16.88,35.275-32.722v-76.62h-24.63V79.06
	c0,1.745-0.228,4.122-2.099,6.183c-1.846,2.023-4.248,3.578-8.18,3.553c-4.109,0.031-7.03-1.491-8.51-3.578
	c-1.479-2.061-1.77-4.425-1.77-6.157V40.915h-25.009v38.689c0.023,16.133,11.96,32.696,32.013,32.734
	c3.907,0,7.789-0.798,11.569-2.302l1.82-0.72l-0.01,1.96v5.613c0,1.176-0.019,2.807-1.265,4.981
	c-1.227,2.188-3.932,4.337-8.483,4.299c-4.097,0.019-6.727-1.795-8.13-3.653c-1.416-1.847-1.732-3.654-1.783-3.907l-25.287-0.102
	l0.506,4.021c2.934,13.832,15.526,27.753,33.974,27.728"/>
<path id="XMLID_7_" fill="#FFFFFF" d="M112.546,150.256c23.062-0.019,35.237-16.88,35.275-32.722v-76.62h-24.63V79.06
	c0,1.745-0.113,4.059-2.099,6.183c-1.884,2.011-4.248,3.578-8.18,3.553c-4.109,0.031-7.03-1.491-8.509-3.578
	c-1.492-2.061-1.77-4.425-1.783-6.157V40.915H77.625v38.689c0.024,16.133,11.96,32.696,32,32.734c3.919,0,7.801-0.798,11.582-2.302
	l1.821-0.72v1.96l-0.014,5.613c0,1.163-0.024,2.807-1.277,4.981c-1.214,2.188-3.919,4.337-8.471,4.299
	c-4.097,0.019-6.739-1.795-8.13-3.653c-1.416-1.847-1.745-3.654-1.783-3.907l-25.287-0.102l0.506,4.021
	c2.933,13.832,15.526,27.753,33.973,27.728"/>
<path id="XMLID_8_" fill="#FFFFFF" d="M0.032,77.074c0,0,0.013-2.149,0.101-3.426l24.756,0.076l-0.063,1.504
	c-0.025,4.426,2.667,8.648,5.032,10.381c2.364,1.757,5.74,2.326,7.801,2.326c5.297-0.013,10.14-3.25,10.203-8.231l-0.012-0.455
	c-0.165-3.881-2.63-6.005-6.145-7.649c-3.161-1.479-8.56-3.768-14.414-6.676c-5.867-2.908-12.201-6.423-17.195-10.368
	C2.889,48.841-0.36,41.483,0.032,31.242C0.373,22.53,4.166,15.02,11.247,8.799c7.08-6.22,15.817-8.699,25.072-8.699
	c11.759,0,21.583,4.742,28.082,12.479c6.587,8.092,7.852,15.766,8.13,21.405l0.05,1.087H46.889
	c-0.266-2.643-1.505-5.803-3.009-7.523c-1.77-2.048-4.488-3.376-7.902-3.363c-1.959,0.013-4.261,0.594-6.208,1.821
	c-1.909,1.201-3.49,3.199-3.477,5.816c-0.025,2.832,1.29,5.045,4.944,6.903c3.565,1.846,14.363,6.625,15.88,7.207
	c15.387,5.993,25.123,15.703,26.235,30.37c0.013,0.315,0.025,0.645,0.025,1.011c0.013,4.957-1.479,13.529-7.144,21.014
	c-5.689,7.485-15.551,14.021-28.46,14.021C12.245,112.262,0.095,93.726,0.032,77.074"/>
</svg>
