<?xml version="1.0" encoding="utf-8"?>
<!-- Generator: Adobe Illustrator 16.0.0, SVG Export Plug-In . SVG Version: 6.00 Build 0)  -->
<!DOCTYPE svg PUBLIC "-//W3C//DTD SVG 1.1//EN" "http://www.w3.org/Graphics/SVG/1.1/DTD/svg11.dtd">
<svg version="1.1" id="Layer_1" xmlns="http://www.w3.org/2000/svg" xmlns:xlink="http://www.w3.org/1999/xlink" x="0px" y="0px"
	 width="136.306px" height="136.306px" viewBox="0 0 136.306 136.306" enable-background="new 0 0 136.306 136.306"
	 xml:space="preserve">
<path fill-rule="evenodd" clip-rule="evenodd" fill="#FFFFFF" d="M0,68.027c0,37.541,30.486,68.279,68.027,68.279
	c37.793,0,68.279-30.738,68.279-68.279S105.82,0,68.027,0C30.486,0,0,30.486,0,68.027L0,68.027z M10.834,68.027
	c0-31.494,25.699-56.941,57.193-56.941c31.746,0,57.445,25.447,57.445,56.941c0,31.746-25.699,57.193-57.445,57.193
	C36.533,125.22,10.834,99.773,10.834,68.027L10.834,68.027z"/>
<polygon fill-rule="evenodd" clip-rule="evenodd" fill="#FFFFFF" points="49.634,61.98 39.304,61.98 39.304,88.435 30.486,88.435 
	30.486,61.98 20.156,61.98 20.156,54.421 49.634,54.421 49.634,61.98 "/>
<polygon fill-rule="evenodd" clip-rule="evenodd" fill="#FFFFFF" points="53.414,54.421 62.484,54.421 74.578,75.333 74.578,75.333 
	74.578,54.421 82.892,54.421 82.892,88.435 73.822,88.435 61.98,67.271 61.728,67.271 61.728,88.435 53.414,88.435 53.414,54.421 
	"/>
<polygon fill-rule="evenodd" clip-rule="evenodd" fill="#FFFFFF" points="116.149,61.98 106.072,61.98 106.072,88.435 
	97.001,88.435 97.001,61.98 86.923,61.98 86.923,54.421 116.149,54.421 116.149,61.98 "/>
</svg>
