<?xml version="1.0" encoding="utf-8"?>
<!-- Generator: Adobe Illustrator 16.0.0, SVG Export Plug-In . SVG Version: 6.00 Build 0)  -->
<!DOCTYPE svg PUBLIC "-//W3C//DTD SVG 1.1//EN" "http://www.w3.org/Graphics/SVG/1.1/DTD/svg11.dtd">
<svg version="1.1" id="Layer_1" xmlns="http://www.w3.org/2000/svg" xmlns:xlink="http://www.w3.org/1999/xlink" x="0px" y="0px"
	 width="318.128px" height="139.769px" viewBox="0 0 318.128 139.769" enable-background="new 0 0 318.128 139.769"
	 xml:space="preserve">
<path fill-rule="evenodd" clip-rule="evenodd" fill="#FFFFFF" d="M108.429,13.935c1.535-3.58,4.604-7.159,8.184-10.738l3.069-2.557
	H79.788v71.092c0,5.114,0,9.207-0.511,11.763c-1.023,9.206-4.091,15.345-9.718,18.414c-2.557,1.531-6.138,2.043-10.229,2.043
	c-4.091,0-7.671-1.02-10.229-3.58c-4.602-3.58-7.161-9.719-7.671-18.414L40.917,0.64H0v72.627c0,10.74,0.513,18.921,1.537,24.038
	c1.532,7.159,4.092,13.811,8.184,19.946c3.579,5.627,8.693,10.742,15.342,14.321c6.648,3.581,13.809,5.628,20.969,6.648
	c7.161,1.023,14.833,1.023,23.017,0.512c7.161-0.512,14.321-2.044,20.969-4.604c6.649-2.557,11.764-6.646,16.367-11.763
	c4.604-4.604,7.672-9.718,10.229-16.367l0.513-1.535c6.137,5.627,11.762,9.719,16.367,12.275c7.16,3.579,13.808,4.602,19.946,3.579
	c3.069,0,6.137-1.532,9.206-4.091c2.046-2.557,3.581-5.111,4.604-8.696c0.511-3.067,0-6.135-1.535-8.691
	c-1.533-2.56-3.069-4.604-5.625-6.139c-3.069-2.047-6.65-3.58-11.252-5.115l-23.017-8.183l-9.716-6.136
	c-4.604-4.095-8.696-9.719-11.252-16.882c-2.558-6.646-3.581-13.805-3.069-20.969C102.292,26.72,104.85,19.562,108.429,13.935
	L108.429,13.935z"/>
<path fill-rule="evenodd" clip-rule="evenodd" fill="#FFFFFF" d="M268.517,42.58c8.694,6.646,12.786,16.877,11.763,29.665
	c-0.51,12.786-5.114,21.992-14.831,27.616c-3.581,2.56-8.184,3.58-13.298,3.58c-6.138,0-11.765-2.043-16.367-6.134
	c-4.604-4.092-8.184-9.719-10.229-16.367c-4.604-15.346-2.046-27.621,8.694-37.339c5.115-5.111,10.741-7.671,16.879-7.671
	C257.265,35.416,262.89,37.976,268.517,42.58L268.517,42.58z M225.554,3.196c-4.604,1.535-9.206,4.092-13.298,6.646
	c-8.183,5.627-14.833,13.811-19.948,24.041c-7.671-6.651-13.298-10.743-17.9-12.786c-8.183-3.072-15.344-3.072-20.97-0.512
	c-3.579,1.535-5.625,3.579-7.161,6.134c-2.046,2.56-2.557,6.141-2.046,9.72c0,3.067,1.023,6.139,3.582,8.694
	c2.556,2.047,5.114,3.579,8.694,4.604l21.481,7.671c7.673,2.56,14.321,6.139,18.925,10.743
	c10.229,9.714,14.321,22.501,11.763,39.379c-0.511,4.604-1.534,8.188-3.068,11.255l-1.534,3.58l1.534,1.024l3.581,3.58
	c5.115,3.58,10.74,6.647,16.367,9.206c12.275,4.604,24.038,4.604,35.802,1.025c6.648-2.56,12.275-6.139,17.39-11.255v11.763h39.382
	V1.66h-39.382v11.767c-5.114-4.604-10.741-8.188-16.367-10.23c-5.115-1.537-10.229-2.557-15.856-3.069
	C238.852-0.383,232.203,0.64,225.554,3.196L225.554,3.196z"/>
</svg>
