<?xml version="1.0" encoding="utf-8"?>
<!-- Generator: Adobe Illustrator 16.0.0, SVG Export Plug-In . SVG Version: 6.00 Build 0)  -->
<!DOCTYPE svg PUBLIC "-//W3C//DTD SVG 1.1//EN" "http://www.w3.org/Graphics/SVG/1.1/DTD/svg11.dtd">
<svg version="1.1" id="Layer_1" xmlns="http://www.w3.org/2000/svg" xmlns:xlink="http://www.w3.org/1999/xlink" x="0px" y="0px"
	 width="552.38px" height="193.727px" viewBox="0 0 552.38 193.727" enable-background="new 0 0 552.38 193.727"
	 xml:space="preserve">
<path fill-rule="evenodd" clip-rule="evenodd" fill="#FFFFFF" d="M113.918,80.098c-5.005,11.189-9.479,21.156-13.923,31.135
	c-11.373,25.536-22.766,51.063-34.058,76.635c-1.55,3.511-3.442,5.688-7.707,5.772c-4.685,0.093-6.905-1.85-8.109-6.231
	c-5.596-20.368-11.384-40.685-17.109-61.019C22.375,88.606,11.726,50.825,1.101,13.037C-1.314,4.446-0.162,2.936,8.669,2.923
	C17,2.912,25.336,3.113,33.659,2.847c4.901-0.157,7.193,1.888,8.352,6.54c6.876,27.599,13.934,55.153,20.943,82.719
	c0.431,1.695,0.973,3.361,1.867,6.42c1.84-3.946,3.18-6.692,4.412-9.485c12.225-27.706,24.48-55.398,36.586-83.156
	c1.659-3.803,3.793-5.813,8.18-5.83c4.312-0.017,6.546,1.686,8.251,5.605c12.475,28.686,25.15,57.285,37.773,85.906
	c0.844,1.913,1.782,3.784,3.773,5.614c1.594-5.99,3.248-11.964,4.771-17.972c5.805-22.893,11.565-45.797,17.349-68.695
	c1.796-7.11,2.422-7.586,9.927-7.592c8.164-0.007,16.328-0.023,24.492,0.004c7.602,0.025,8.953,1.779,6.923,9.021
	c-9.159,32.672-18.329,65.342-27.511,98.008c-7.246,25.779-14.531,51.547-21.748,77.335c-0.9,3.216-1.885,6.01-5.959,6.239
	c-4.306,0.242-7.521-0.434-9.583-5.099c-14.729-33.331-29.702-66.555-44.604-99.81C116.77,86.202,115.633,83.808,113.918,80.098z"/>
<path fill-rule="evenodd" clip-rule="evenodd" fill="#FFFFFF" d="M433.052,85.731c0,32.247,0,63.226,0,94.207
	c0,1.499-0.066,3.002,0.009,4.498c0.219,4.4-1.998,6.561-6.243,6.592c-9.829,0.069-19.661,0.121-29.489-0.02
	c-4.882-0.07-6.449-2.098-6.458-7.986c-0.041-25.991-0.013-51.982-0.026-77.974c-0.018-32.155-0.058-64.311-0.069-96.467
	c-0.001-3.105-0.766-6.936,3.332-7.92c3.771-0.906,7.563-1.383,11.082,2.024c33.15,32.084,66.449,64.015,99.708,95.987
	c1.31,1.258,2.649,2.485,5.081,4.76c0-2.814,0-4.49,0-6.166c-0.001-28.657-0.007-57.314,0.003-85.971
	c0.003-7.169,1.201-8.356,8.425-8.37c8.997-0.018,17.994-0.054,26.99,0.016c5.442,0.042,6.957,1.456,6.96,6.798
	c0.036,58.98,0.052,117.96-0.102,176.941c-0.005,2.121-1.316,5.496-2.874,6.108c-3.877,1.522-8.045,1.433-11.498-2.083
	c-12.021-12.241-24.16-24.365-36.264-36.526c-21.621-21.726-43.246-43.446-64.88-65.16
	C435.851,88.128,434.861,87.338,433.052,85.731z"/>
<path fill-rule="evenodd" clip-rule="evenodd" fill="#FFFFFF" d="M338.834,130.783c-5.585,0-10.399,0.098-15.208-0.026
	c-5.57-0.144-6.786-1.399-6.823-6.86c-0.052-7.664,0.071-15.33-0.042-22.993c-0.068-4.58,1.834-6.71,6.546-6.683
	c16.995,0.096,33.991,0.099,50.985-0.005c4.506-0.028,6.521,2.25,6.539,6.354c0.103,23.326,0.166,46.653-0.015,69.979
	c-0.016,1.965-1.41,4.832-3.027,5.735c-32.599,18.2-84.617,27.808-124.15-2.351c-30.941-23.603-44.706-63.248-34.877-101.1
	c9.846-37.919,40.992-66.167,79.531-71.391c29.562-4.007,55.564,4.849,78.455,23.519c3.933,3.208,3.986,5.361,0.486,9.132
	c-6.231,6.715-12.589,13.313-18.805,20.042c-3.246,3.516-6.502,3.58-10.006,0.529c-26.563-23.135-77.835-12.91-85.93,33.696
	c-6.325,36.42,23.204,62.361,51.21,61.994c6.916-0.091,13.822-1.593,20.716-2.564c3.231-0.456,4.884-2.129,4.493-5.781
	C338.546,138.582,338.834,135.083,338.834,130.783z"/>
</svg>
